%TF.GenerationSoftware,KiCad,Pcbnew,6.0.11-2627ca5db0~126~ubuntu22.04.1*%
%TF.CreationDate,2023-09-30T14:12:33+02:00*%
%TF.ProjectId,atmega328pb-nano,61746d65-6761-4333-9238-70622d6e616e,rev?*%
%TF.SameCoordinates,Original*%
%TF.FileFunction,Copper,L2,Bot*%
%TF.FilePolarity,Positive*%
%FSLAX46Y46*%
G04 Gerber Fmt 4.6, Leading zero omitted, Abs format (unit mm)*
G04 Created by KiCad (PCBNEW 6.0.11-2627ca5db0~126~ubuntu22.04.1) date 2023-09-30 14:12:33*
%MOMM*%
%LPD*%
G01*
G04 APERTURE LIST*
G04 Aperture macros list*
%AMRoundRect*
0 Rectangle with rounded corners*
0 $1 Rounding radius*
0 $2 $3 $4 $5 $6 $7 $8 $9 X,Y pos of 4 corners*
0 Add a 4 corners polygon primitive as box body*
4,1,4,$2,$3,$4,$5,$6,$7,$8,$9,$2,$3,0*
0 Add four circle primitives for the rounded corners*
1,1,$1+$1,$2,$3*
1,1,$1+$1,$4,$5*
1,1,$1+$1,$6,$7*
1,1,$1+$1,$8,$9*
0 Add four rect primitives between the rounded corners*
20,1,$1+$1,$2,$3,$4,$5,0*
20,1,$1+$1,$4,$5,$6,$7,0*
20,1,$1+$1,$6,$7,$8,$9,0*
20,1,$1+$1,$8,$9,$2,$3,0*%
G04 Aperture macros list end*
%TA.AperFunction,ComponentPad*%
%ADD10R,1.700000X1.700000*%
%TD*%
%TA.AperFunction,ComponentPad*%
%ADD11O,1.700000X1.700000*%
%TD*%
%TA.AperFunction,SMDPad,CuDef*%
%ADD12RoundRect,0.200000X0.275000X-0.200000X0.275000X0.200000X-0.275000X0.200000X-0.275000X-0.200000X0*%
%TD*%
%TA.AperFunction,ViaPad*%
%ADD13C,0.800000*%
%TD*%
%TA.AperFunction,Conductor*%
%ADD14C,0.250000*%
%TD*%
G04 APERTURE END LIST*
D10*
%TO.P,J2,1,Pin_1*%
%TO.N,GNDD*%
X173250000Y-93625000D03*
D11*
%TO.P,J2,2,Pin_2*%
X175790000Y-93625000D03*
%TO.P,J2,3,Pin_3*%
%TO.N,+5VD*%
X178330000Y-93625000D03*
%TO.P,J2,4,Pin_4*%
%TO.N,RXD*%
X180870000Y-93625000D03*
%TO.P,J2,5,Pin_5*%
%TO.N,TXD*%
X183410000Y-93625000D03*
%TO.P,J2,6,Pin_6*%
%TO.N,DTR*%
X185950000Y-93625000D03*
%TD*%
%TO.P,J12,1,Pin_1*%
%TO.N,A4*%
X184750000Y-107600000D03*
%TO.P,J12,2,Pin_2*%
%TO.N,A5*%
X184750000Y-105060000D03*
%TD*%
%TO.P,J14,1,Pin_1*%
%TO.N,SDA1*%
X182020000Y-102225000D03*
%TO.P,J14,2,Pin_2*%
%TO.N,SCL1*%
X179480000Y-102225000D03*
%TD*%
%TO.P,J13,1,Pin_1*%
%TO.N,A6*%
X184800000Y-118175000D03*
%TO.P,J13,2,Pin_2*%
%TO.N,A7*%
X184800000Y-115635000D03*
%TD*%
D10*
%TO.P,J10,1,Pin_1*%
%TO.N,D9*%
X172000000Y-124250000D03*
D11*
%TO.P,J10,2,Pin_2*%
%TO.N,D8*%
X172000000Y-121710000D03*
%TO.P,J10,3,Pin_3*%
%TO.N,D7*%
X172000000Y-119170000D03*
%TO.P,J10,4,Pin_4*%
%TO.N,D6*%
X172000000Y-116630000D03*
%TO.P,J10,5,Pin_5*%
%TO.N,D5*%
X172000000Y-114090000D03*
%TO.P,J10,6,Pin_6*%
%TO.N,D4*%
X172000000Y-111550000D03*
%TO.P,J10,7,Pin_7*%
%TO.N,D3*%
X172000000Y-109010000D03*
%TO.P,J10,8,Pin_8*%
%TO.N,D2*%
X172000000Y-106470000D03*
%TO.P,J10,9,Pin_9*%
%TO.N,GNDD*%
X172000000Y-103930000D03*
%TO.P,J10,10,Pin_10*%
%TO.N,~{RESET}*%
X172000000Y-101390000D03*
%TO.P,J10,11,Pin_11*%
%TO.N,RXD*%
X172000000Y-98850000D03*
%TO.P,J10,12,Pin_12*%
%TO.N,TXD*%
X172000000Y-96310000D03*
%TD*%
D10*
%TO.P,J11,1,Pin_1*%
%TO.N,D10*%
X187200000Y-124250000D03*
D11*
%TO.P,J11,2,Pin_2*%
%TO.N,MOSI*%
X187200000Y-121710000D03*
%TO.P,J11,3,Pin_3*%
%TO.N,MISO*%
X187200000Y-119170000D03*
%TO.P,J11,4,Pin_4*%
%TO.N,SCK*%
X187200000Y-116630000D03*
%TO.P,J11,5,Pin_5*%
%TO.N,A0*%
X187200000Y-114090000D03*
%TO.P,J11,6,Pin_6*%
%TO.N,A1*%
X187200000Y-111550000D03*
%TO.P,J11,7,Pin_7*%
%TO.N,A2*%
X187200000Y-109010000D03*
%TO.P,J11,8,Pin_8*%
%TO.N,A3*%
X187200000Y-106470000D03*
%TO.P,J11,9,Pin_9*%
%TO.N,+5VD*%
X187200000Y-103930000D03*
%TO.P,J11,10,Pin_10*%
%TO.N,~{RESET}*%
X187200000Y-101390000D03*
%TO.P,J11,11,Pin_11*%
%TO.N,GNDD*%
X187200000Y-98850000D03*
%TO.P,J11,12,Pin_12*%
%TO.N,RAW*%
X187200000Y-96310000D03*
%TD*%
D12*
%TO.P,R13,1*%
%TO.N,A5*%
X185350000Y-103500000D03*
%TO.P,R13,2*%
%TO.N,+5VD*%
X185350000Y-101850000D03*
%TD*%
%TO.P,R12,1*%
%TO.N,A4*%
X183850000Y-103500000D03*
%TO.P,R12,2*%
%TO.N,+5VD*%
X183850000Y-101850000D03*
%TD*%
D13*
%TO.N,GNDD*%
X182125000Y-98650000D03*
X175825000Y-98950000D03*
X177112500Y-109662500D03*
X182500000Y-118000000D03*
X182050000Y-113500000D03*
X183025000Y-124025000D03*
%TO.N,~{RESET}*%
X181500000Y-109150000D03*
X175275000Y-122375000D03*
%TO.N,RAW*%
X181125000Y-99800000D03*
%TO.N,+5VD*%
X177450000Y-119850000D03*
X178125000Y-101075000D03*
X174700000Y-97000000D03*
X180375000Y-115225000D03*
%TO.N,MISO*%
X178950000Y-116950000D03*
%TO.N,MOSI*%
X183550000Y-121000000D03*
%TO.N,TXD*%
X183775000Y-97475000D03*
%TO.N,RXD*%
X184275000Y-100675000D03*
X179725000Y-95525000D03*
%TO.N,D4*%
X180500000Y-109100000D03*
%TO.N,D3*%
X177450000Y-105800000D03*
%TO.N,D2*%
X178400000Y-105275000D03*
%TO.N,D10*%
X182900000Y-121800000D03*
%TO.N,SDA1*%
X178425000Y-108700000D03*
%TO.N,SCL1*%
X179375000Y-104825000D03*
X174900000Y-108600000D03*
%TD*%
D14*
%TO.N,~{RESET}*%
X175275000Y-115375000D02*
X181500000Y-109150000D01*
X175275000Y-122375000D02*
X175275000Y-115375000D01*
%TO.N,RAW*%
X185300000Y-98200000D02*
X183100000Y-98200000D01*
X186375000Y-97125000D02*
X185300000Y-98200000D01*
X187200000Y-96310000D02*
X186385000Y-97125000D01*
X181125000Y-98375000D02*
X181125000Y-99800000D01*
X183100000Y-98200000D02*
X182825000Y-97925000D01*
X181575000Y-97925000D02*
X181125000Y-98375000D01*
X182825000Y-97925000D02*
X181575000Y-97925000D01*
X186385000Y-97125000D02*
X186375000Y-97125000D01*
%TO.N,+5VD*%
X180375000Y-115225000D02*
X179575000Y-115225000D01*
X178850000Y-101075000D02*
X178925000Y-101000000D01*
X185350000Y-101850000D02*
X187200000Y-103700000D01*
X175950000Y-97000000D02*
X178330000Y-94620000D01*
X179575000Y-115225000D02*
X177450000Y-117350000D01*
X177450000Y-117350000D02*
X177450000Y-119850000D01*
X178125000Y-101075000D02*
X178850000Y-101075000D01*
X183850000Y-101850000D02*
X185350000Y-101850000D01*
X183000000Y-101000000D02*
X183850000Y-101850000D01*
X178925000Y-101000000D02*
X183000000Y-101000000D01*
X178330000Y-94620000D02*
X178330000Y-93625000D01*
X187200000Y-103700000D02*
X187200000Y-103930000D01*
X174700000Y-97000000D02*
X175950000Y-97000000D01*
%TO.N,MISO*%
X181950000Y-119950000D02*
X186420000Y-119950000D01*
X178950000Y-116950000D02*
X181950000Y-119950000D01*
X186420000Y-119950000D02*
X187200000Y-119170000D01*
%TO.N,MOSI*%
X186490000Y-121000000D02*
X187200000Y-121710000D01*
X183550000Y-121000000D02*
X186490000Y-121000000D01*
%TO.N,TXD*%
X183410000Y-97110000D02*
X183410000Y-93625000D01*
X183775000Y-97475000D02*
X183410000Y-97110000D01*
%TO.N,RXD*%
X179725000Y-94770000D02*
X180870000Y-93625000D01*
X180825000Y-100550000D02*
X183575000Y-100550000D01*
X180125000Y-95925000D02*
X180125000Y-99850000D01*
X183700000Y-100675000D02*
X184275000Y-100675000D01*
X180125000Y-99850000D02*
X180825000Y-100550000D01*
X179725000Y-95525000D02*
X180125000Y-95925000D01*
X179725000Y-95525000D02*
X179725000Y-94770000D01*
X183575000Y-100550000D02*
X183700000Y-100675000D01*
%TO.N,D4*%
X178050000Y-111550000D02*
X172000000Y-111550000D01*
X180500000Y-109100000D02*
X178050000Y-111550000D01*
%TO.N,D3*%
X172000000Y-109000000D02*
X172000000Y-109010000D01*
X175200000Y-105800000D02*
X172000000Y-109000000D01*
X177450000Y-105800000D02*
X175200000Y-105800000D01*
%TO.N,D2*%
X178400000Y-105275000D02*
X178150000Y-105025000D01*
X178150000Y-105025000D02*
X173475000Y-105025000D01*
X173475000Y-105025000D02*
X172030000Y-106470000D01*
X172030000Y-106470000D02*
X172000000Y-106470000D01*
%TO.N,D10*%
X184750000Y-121800000D02*
X187200000Y-124250000D01*
X182900000Y-121800000D02*
X184750000Y-121800000D01*
%TO.N,A4*%
X183500000Y-106350000D02*
X184750000Y-107600000D01*
X183850000Y-104050000D02*
X183500000Y-104400000D01*
X183500000Y-104400000D02*
X183500000Y-106350000D01*
X183850000Y-103500000D02*
X183850000Y-104050000D01*
%TO.N,A5*%
X184750000Y-105060000D02*
X184750000Y-104675000D01*
X184750000Y-104675000D02*
X185350000Y-104075000D01*
X185350000Y-104075000D02*
X185350000Y-103500000D01*
%TO.N,SDA1*%
X178425000Y-108675000D02*
X181325000Y-105775000D01*
X181325000Y-105775000D02*
X181325000Y-102920000D01*
X181325000Y-102920000D02*
X182020000Y-102225000D01*
X178425000Y-108700000D02*
X178425000Y-108675000D01*
%TO.N,SCL1*%
X179375000Y-104825000D02*
X179375000Y-105375000D01*
X179375000Y-105375000D02*
X176150000Y-108600000D01*
X176150000Y-108600000D02*
X174900000Y-108600000D01*
%TD*%
%TA.AperFunction,Conductor*%
%TO.N,GNDD*%
G36*
X171834121Y-92851502D02*
G01*
X171880614Y-92905158D01*
X171892000Y-92957500D01*
X171892000Y-93352885D01*
X171896475Y-93368124D01*
X171897865Y-93369329D01*
X171905548Y-93371000D01*
X175918000Y-93371000D01*
X175986121Y-93391002D01*
X176032614Y-93444658D01*
X176044000Y-93497000D01*
X176044000Y-94943517D01*
X176048064Y-94957359D01*
X176061478Y-94959393D01*
X176068184Y-94958534D01*
X176078262Y-94956392D01*
X176282255Y-94895191D01*
X176291842Y-94891433D01*
X176483095Y-94797739D01*
X176491945Y-94792464D01*
X176665328Y-94668792D01*
X176673200Y-94662139D01*
X176824052Y-94511812D01*
X176830730Y-94503965D01*
X176955003Y-94331020D01*
X176960313Y-94322183D01*
X177016927Y-94207635D01*
X177065041Y-94155428D01*
X177133742Y-94137521D01*
X177201219Y-94159600D01*
X177244079Y-94210212D01*
X177257090Y-94238115D01*
X177257093Y-94238120D01*
X177259416Y-94243102D01*
X177262572Y-94247609D01*
X177262573Y-94247611D01*
X177349467Y-94371708D01*
X177383013Y-94419617D01*
X177509454Y-94546058D01*
X177543480Y-94608370D01*
X177538415Y-94679185D01*
X177509456Y-94724245D01*
X175777106Y-96456595D01*
X175714794Y-96490621D01*
X175688011Y-96493500D01*
X175350903Y-96493500D01*
X175282782Y-96473498D01*
X175261504Y-96456290D01*
X175192789Y-96387094D01*
X175186846Y-96383322D01*
X175186843Y-96383320D01*
X175062682Y-96304525D01*
X175044755Y-96293148D01*
X175017570Y-96283468D01*
X174886220Y-96236696D01*
X174886215Y-96236695D01*
X174879585Y-96234334D01*
X174872597Y-96233501D01*
X174872594Y-96233500D01*
X174752307Y-96219157D01*
X174705490Y-96213574D01*
X174698487Y-96214310D01*
X174698486Y-96214310D01*
X174538122Y-96231165D01*
X174538120Y-96231166D01*
X174531122Y-96231901D01*
X174365148Y-96288403D01*
X174338942Y-96304525D01*
X174221823Y-96376577D01*
X174221820Y-96376579D01*
X174215816Y-96380273D01*
X174210781Y-96385204D01*
X174210778Y-96385206D01*
X174100193Y-96493500D01*
X174090549Y-96502944D01*
X173995572Y-96650319D01*
X173993163Y-96656939D01*
X173993161Y-96656942D01*
X173938015Y-96808455D01*
X173935606Y-96815074D01*
X173913632Y-96989020D01*
X173930741Y-97163511D01*
X173986083Y-97329876D01*
X173989730Y-97335898D01*
X173989731Y-97335900D01*
X174071946Y-97471652D01*
X174076908Y-97479846D01*
X174081797Y-97484909D01*
X174081798Y-97484910D01*
X174126271Y-97530963D01*
X174198701Y-97605966D01*
X174204593Y-97609821D01*
X174204597Y-97609825D01*
X174264402Y-97648960D01*
X174345410Y-97701970D01*
X174352014Y-97704426D01*
X174503140Y-97760629D01*
X174503142Y-97760629D01*
X174509742Y-97763084D01*
X174516725Y-97764016D01*
X174516726Y-97764016D01*
X174676549Y-97785342D01*
X174676553Y-97785342D01*
X174683530Y-97786273D01*
X174690541Y-97785635D01*
X174690545Y-97785635D01*
X174828105Y-97773115D01*
X174858137Y-97770382D01*
X174864839Y-97768204D01*
X174864841Y-97768204D01*
X175018185Y-97718380D01*
X175018188Y-97718379D01*
X175024884Y-97716203D01*
X175175484Y-97626427D01*
X175248922Y-97556493D01*
X175264925Y-97541254D01*
X175328050Y-97508762D01*
X175351817Y-97506500D01*
X175879157Y-97506500D01*
X175891221Y-97507848D01*
X175891260Y-97507358D01*
X175900206Y-97508078D01*
X175908962Y-97510059D01*
X175962432Y-97506742D01*
X175970233Y-97506500D01*
X175986366Y-97506500D01*
X175990807Y-97505864D01*
X175990809Y-97505864D01*
X175996677Y-97505024D01*
X176006726Y-97503995D01*
X176044806Y-97501632D01*
X176053768Y-97501076D01*
X176062215Y-97498026D01*
X176065317Y-97497384D01*
X176081702Y-97493299D01*
X176084735Y-97492412D01*
X176093619Y-97491140D01*
X176101786Y-97487426D01*
X176101788Y-97487426D01*
X176136533Y-97471628D01*
X176145902Y-97467815D01*
X176181792Y-97454859D01*
X176181793Y-97454858D01*
X176190232Y-97451812D01*
X176197475Y-97446521D01*
X176200232Y-97445055D01*
X176214882Y-97436494D01*
X176217524Y-97434804D01*
X176225693Y-97431090D01*
X176232493Y-97425231D01*
X176232496Y-97425229D01*
X176261407Y-97400318D01*
X176269312Y-97394040D01*
X176280250Y-97386049D01*
X176291168Y-97375131D01*
X176298015Y-97368773D01*
X176328802Y-97342245D01*
X176335604Y-97336384D01*
X176340488Y-97328849D01*
X176346085Y-97322433D01*
X176355491Y-97310808D01*
X178638052Y-95028247D01*
X178647539Y-95020666D01*
X178647221Y-95020292D01*
X178654054Y-95014477D01*
X178661648Y-95009685D01*
X178697124Y-94969515D01*
X178702470Y-94963829D01*
X178713864Y-94952435D01*
X178720103Y-94944110D01*
X178726487Y-94936268D01*
X178751747Y-94907667D01*
X178757689Y-94900939D01*
X178761503Y-94892815D01*
X178763237Y-94890176D01*
X178771936Y-94875700D01*
X178773460Y-94872916D01*
X178778842Y-94865735D01*
X178795395Y-94821580D01*
X178799310Y-94812290D01*
X178808346Y-94793044D01*
X178855403Y-94739884D01*
X178869148Y-94732402D01*
X178943110Y-94697913D01*
X178943121Y-94697907D01*
X178948102Y-94695584D01*
X178995867Y-94662139D01*
X179020048Y-94645207D01*
X179087322Y-94622519D01*
X179156183Y-94639804D01*
X179204767Y-94691574D01*
X179217973Y-94757757D01*
X179215826Y-94786652D01*
X179214477Y-94804804D01*
X179216350Y-94813578D01*
X179216928Y-94822059D01*
X179218500Y-94836950D01*
X179218500Y-94874161D01*
X179198498Y-94942282D01*
X179180657Y-94964185D01*
X179134194Y-95009685D01*
X179115549Y-95027944D01*
X179020572Y-95175319D01*
X179018163Y-95181939D01*
X179018161Y-95181942D01*
X178963015Y-95333455D01*
X178960606Y-95340074D01*
X178959723Y-95347062D01*
X178959723Y-95347063D01*
X178959248Y-95350827D01*
X178938632Y-95514020D01*
X178955741Y-95688511D01*
X179011083Y-95854876D01*
X179014730Y-95860898D01*
X179014731Y-95860900D01*
X179096456Y-95995843D01*
X179101908Y-96004846D01*
X179223701Y-96130966D01*
X179229593Y-96134821D01*
X179229597Y-96134825D01*
X179314457Y-96190355D01*
X179370410Y-96226970D01*
X179377014Y-96229426D01*
X179534742Y-96288084D01*
X179533779Y-96290673D01*
X179584222Y-96320211D01*
X179616367Y-96383514D01*
X179618500Y-96406600D01*
X179618500Y-99779157D01*
X179617152Y-99791221D01*
X179617642Y-99791260D01*
X179616922Y-99800206D01*
X179614941Y-99808962D01*
X179615605Y-99819667D01*
X179618258Y-99862432D01*
X179618500Y-99870233D01*
X179618500Y-99886366D01*
X179619136Y-99890807D01*
X179619136Y-99890809D01*
X179619976Y-99896677D01*
X179621005Y-99906726D01*
X179621669Y-99917427D01*
X179623924Y-99953768D01*
X179626974Y-99962215D01*
X179627616Y-99965317D01*
X179631701Y-99981702D01*
X179632588Y-99984735D01*
X179633860Y-99993619D01*
X179637574Y-100001786D01*
X179637574Y-100001788D01*
X179642059Y-100011652D01*
X179653272Y-100036312D01*
X179653372Y-100036533D01*
X179657185Y-100045902D01*
X179668302Y-100076696D01*
X179673188Y-100090232D01*
X179678479Y-100097475D01*
X179679945Y-100100232D01*
X179688506Y-100114882D01*
X179690196Y-100117524D01*
X179693910Y-100125693D01*
X179699769Y-100132493D01*
X179699771Y-100132496D01*
X179724682Y-100161407D01*
X179730960Y-100169312D01*
X179738951Y-100180250D01*
X179749869Y-100191168D01*
X179756227Y-100198015D01*
X179788616Y-100235604D01*
X179796151Y-100240488D01*
X179802567Y-100246085D01*
X179814192Y-100255491D01*
X179837106Y-100278405D01*
X179871132Y-100340717D01*
X179866067Y-100411532D01*
X179823520Y-100468368D01*
X179757000Y-100493179D01*
X179748011Y-100493500D01*
X178995843Y-100493500D01*
X178983779Y-100492152D01*
X178983740Y-100492642D01*
X178974794Y-100491922D01*
X178966038Y-100489941D01*
X178913842Y-100493179D01*
X178912568Y-100493258D01*
X178904767Y-100493500D01*
X178888634Y-100493500D01*
X178884193Y-100494136D01*
X178884191Y-100494136D01*
X178878323Y-100494976D01*
X178868274Y-100496005D01*
X178832845Y-100498203D01*
X178821232Y-100498924D01*
X178812785Y-100501974D01*
X178809683Y-100502616D01*
X178793298Y-100506701D01*
X178790265Y-100507588D01*
X178781381Y-100508860D01*
X178773212Y-100512574D01*
X178764591Y-100515095D01*
X178763593Y-100511681D01*
X178710119Y-100519255D01*
X178645601Y-100489626D01*
X178638909Y-100483361D01*
X178622754Y-100467093D01*
X178622751Y-100467090D01*
X178617789Y-100462094D01*
X178587723Y-100443013D01*
X178538117Y-100411532D01*
X178469755Y-100368148D01*
X178442570Y-100358468D01*
X178311220Y-100311696D01*
X178311215Y-100311695D01*
X178304585Y-100309334D01*
X178297597Y-100308501D01*
X178297594Y-100308500D01*
X178177307Y-100294157D01*
X178130490Y-100288574D01*
X178123487Y-100289310D01*
X178123486Y-100289310D01*
X177963122Y-100306165D01*
X177963120Y-100306166D01*
X177956122Y-100306901D01*
X177790148Y-100363403D01*
X177776670Y-100371695D01*
X177646823Y-100451577D01*
X177646820Y-100451579D01*
X177640816Y-100455273D01*
X177635781Y-100460204D01*
X177635778Y-100460206D01*
X177520581Y-100573016D01*
X177515549Y-100577944D01*
X177420572Y-100725319D01*
X177418163Y-100731939D01*
X177418161Y-100731942D01*
X177367701Y-100870581D01*
X177360606Y-100890074D01*
X177338632Y-101064020D01*
X177355741Y-101238511D01*
X177411083Y-101404876D01*
X177414730Y-101410898D01*
X177414731Y-101410900D01*
X177472629Y-101506500D01*
X177501908Y-101554846D01*
X177623701Y-101680966D01*
X177629593Y-101684821D01*
X177629597Y-101684825D01*
X177714457Y-101740355D01*
X177770410Y-101776970D01*
X177777014Y-101779426D01*
X177928140Y-101835629D01*
X177928142Y-101835629D01*
X177934742Y-101838084D01*
X177941725Y-101839016D01*
X177941726Y-101839016D01*
X178101549Y-101860342D01*
X178101553Y-101860342D01*
X178108530Y-101861273D01*
X178115541Y-101860635D01*
X178115542Y-101860635D01*
X178118788Y-101860339D01*
X178128173Y-101859485D01*
X178197825Y-101873229D01*
X178248990Y-101922449D01*
X178265423Y-101991518D01*
X178263803Y-102005761D01*
X178262577Y-102010335D01*
X178243796Y-102225000D01*
X178262577Y-102439665D01*
X178264001Y-102444978D01*
X178264001Y-102444980D01*
X178313979Y-102631500D01*
X178318348Y-102647807D01*
X178320670Y-102652787D01*
X178320671Y-102652789D01*
X178407090Y-102838115D01*
X178407093Y-102838120D01*
X178409416Y-102843102D01*
X178412572Y-102847609D01*
X178412573Y-102847611D01*
X178517828Y-102997930D01*
X178533013Y-103019617D01*
X178685383Y-103171987D01*
X178689891Y-103175144D01*
X178689894Y-103175146D01*
X178857385Y-103292424D01*
X178861898Y-103295584D01*
X178866880Y-103297907D01*
X178866885Y-103297910D01*
X179052211Y-103384329D01*
X179057193Y-103386652D01*
X179062501Y-103388074D01*
X179062503Y-103388075D01*
X179260020Y-103440999D01*
X179260022Y-103440999D01*
X179265335Y-103442423D01*
X179480000Y-103461204D01*
X179694665Y-103442423D01*
X179699978Y-103440999D01*
X179699980Y-103440999D01*
X179897497Y-103388075D01*
X179897499Y-103388074D01*
X179902807Y-103386652D01*
X179907789Y-103384329D01*
X180093115Y-103297910D01*
X180093120Y-103297907D01*
X180098102Y-103295584D01*
X180102615Y-103292424D01*
X180270106Y-103175146D01*
X180270109Y-103175144D01*
X180274617Y-103171987D01*
X180426987Y-103019617D01*
X180442173Y-102997930D01*
X180547427Y-102847611D01*
X180547428Y-102847609D01*
X180550584Y-102843102D01*
X180552907Y-102838120D01*
X180552910Y-102838115D01*
X180583528Y-102772454D01*
X180630446Y-102719169D01*
X180698723Y-102699708D01*
X180766683Y-102720250D01*
X180812748Y-102774273D01*
X180823377Y-102835041D01*
X180821736Y-102857124D01*
X180820582Y-102867173D01*
X180818500Y-102880544D01*
X180818500Y-102895986D01*
X180818154Y-102905324D01*
X180814477Y-102954804D01*
X180816350Y-102963578D01*
X180816928Y-102972059D01*
X180818500Y-102986950D01*
X180818500Y-105513011D01*
X180798498Y-105581132D01*
X180781595Y-105602106D01*
X178506334Y-107877367D01*
X178444022Y-107911393D01*
X178430410Y-107913582D01*
X178263122Y-107931165D01*
X178263120Y-107931166D01*
X178256122Y-107931901D01*
X178090148Y-107988403D01*
X178084144Y-107992097D01*
X177946823Y-108076577D01*
X177946820Y-108076579D01*
X177940816Y-108080273D01*
X177935781Y-108085204D01*
X177935778Y-108085206D01*
X177820581Y-108198016D01*
X177815549Y-108202944D01*
X177720572Y-108350319D01*
X177718163Y-108356939D01*
X177718161Y-108356942D01*
X177671477Y-108485206D01*
X177660606Y-108515074D01*
X177638632Y-108689020D01*
X177655741Y-108863511D01*
X177711083Y-109029876D01*
X177714730Y-109035898D01*
X177714731Y-109035900D01*
X177783833Y-109150000D01*
X177801908Y-109179846D01*
X177806797Y-109184909D01*
X177806798Y-109184910D01*
X177839897Y-109219185D01*
X177923701Y-109305966D01*
X177929593Y-109309821D01*
X177929597Y-109309825D01*
X178010986Y-109363084D01*
X178070410Y-109401970D01*
X178077014Y-109404426D01*
X178228140Y-109460629D01*
X178228142Y-109460629D01*
X178234742Y-109463084D01*
X178241725Y-109464016D01*
X178241726Y-109464016D01*
X178401549Y-109485342D01*
X178401553Y-109485342D01*
X178408530Y-109486273D01*
X178415541Y-109485635D01*
X178415545Y-109485635D01*
X178553105Y-109473115D01*
X178583137Y-109470382D01*
X178589839Y-109468204D01*
X178589841Y-109468204D01*
X178743185Y-109418380D01*
X178743188Y-109418379D01*
X178749884Y-109416203D01*
X178900484Y-109326427D01*
X178905578Y-109321576D01*
X178905582Y-109321573D01*
X178974833Y-109255625D01*
X179027452Y-109205517D01*
X179114949Y-109073823D01*
X179120576Y-109065354D01*
X179120577Y-109065352D01*
X179124477Y-109059482D01*
X179186737Y-108895581D01*
X179198738Y-108810188D01*
X179210587Y-108725883D01*
X179210588Y-108725875D01*
X179211138Y-108721959D01*
X179211445Y-108700000D01*
X179208608Y-108674711D01*
X179220891Y-108604787D01*
X179244728Y-108571571D01*
X181633052Y-106183247D01*
X181642539Y-106175666D01*
X181642221Y-106175292D01*
X181649054Y-106169477D01*
X181656648Y-106164685D01*
X181692124Y-106124515D01*
X181697470Y-106118829D01*
X181708864Y-106107435D01*
X181715103Y-106099110D01*
X181721487Y-106091268D01*
X181746747Y-106062667D01*
X181752689Y-106055939D01*
X181756503Y-106047815D01*
X181758237Y-106045176D01*
X181766936Y-106030700D01*
X181768460Y-106027916D01*
X181773842Y-106020735D01*
X181781004Y-106001632D01*
X181790389Y-105976597D01*
X181794316Y-105967278D01*
X181810535Y-105932733D01*
X181810535Y-105932732D01*
X181814349Y-105924609D01*
X181815730Y-105915743D01*
X181816654Y-105912719D01*
X181820943Y-105896370D01*
X181821621Y-105893284D01*
X181824771Y-105884883D01*
X181825436Y-105875938D01*
X181825438Y-105875928D01*
X181828266Y-105837868D01*
X181829416Y-105827844D01*
X181831500Y-105814456D01*
X181831500Y-105799005D01*
X181831846Y-105789668D01*
X181834857Y-105749144D01*
X181835522Y-105740196D01*
X181833649Y-105731420D01*
X181833070Y-105722931D01*
X181831500Y-105708056D01*
X181831500Y-103582218D01*
X181851502Y-103514097D01*
X181905158Y-103467604D01*
X181968481Y-103456697D01*
X182014524Y-103460725D01*
X182014525Y-103460725D01*
X182020000Y-103461204D01*
X182234665Y-103442423D01*
X182239978Y-103440999D01*
X182239980Y-103440999D01*
X182437497Y-103388075D01*
X182437499Y-103388074D01*
X182442807Y-103386652D01*
X182447789Y-103384329D01*
X182633115Y-103297910D01*
X182633120Y-103297907D01*
X182638102Y-103295584D01*
X182642610Y-103292427D01*
X182642616Y-103292424D01*
X182795230Y-103185563D01*
X182862504Y-103162875D01*
X182931364Y-103180160D01*
X182979948Y-103231930D01*
X182993500Y-103288776D01*
X182993500Y-103738116D01*
X183008467Y-103851802D01*
X183067061Y-103993259D01*
X183070922Y-103998290D01*
X183087451Y-104066421D01*
X183070598Y-104118256D01*
X183072311Y-104119060D01*
X183069023Y-104126063D01*
X183066924Y-104129556D01*
X183066911Y-104129597D01*
X183066777Y-104129801D01*
X183058054Y-104144319D01*
X183056540Y-104147085D01*
X183051158Y-104154266D01*
X183048008Y-104162669D01*
X183034613Y-104198399D01*
X183030686Y-104207718D01*
X183029518Y-104210206D01*
X183010651Y-104250391D01*
X183009270Y-104259261D01*
X183008345Y-104262286D01*
X183004062Y-104278615D01*
X183003382Y-104281708D01*
X183000229Y-104290118D01*
X182999564Y-104299069D01*
X182996736Y-104337124D01*
X182995582Y-104347173D01*
X182993500Y-104360544D01*
X182993500Y-104375986D01*
X182993154Y-104385324D01*
X182989477Y-104434804D01*
X182991350Y-104443578D01*
X182991928Y-104452059D01*
X182993500Y-104466950D01*
X182993500Y-106279157D01*
X182992152Y-106291221D01*
X182992642Y-106291260D01*
X182991922Y-106300206D01*
X182989941Y-106308962D01*
X182990497Y-106317922D01*
X182993258Y-106362432D01*
X182993500Y-106370233D01*
X182993500Y-106386366D01*
X182994136Y-106390807D01*
X182994136Y-106390809D01*
X182994976Y-106396677D01*
X182996005Y-106406726D01*
X182997967Y-106438348D01*
X182998924Y-106453768D01*
X183001974Y-106462215D01*
X183002616Y-106465317D01*
X183006701Y-106481702D01*
X183007588Y-106484735D01*
X183008860Y-106493619D01*
X183012574Y-106501786D01*
X183012574Y-106501788D01*
X183028372Y-106536533D01*
X183032185Y-106545901D01*
X183048188Y-106590232D01*
X183053479Y-106597475D01*
X183054945Y-106600232D01*
X183063506Y-106614882D01*
X183065196Y-106617524D01*
X183068910Y-106625693D01*
X183074769Y-106632493D01*
X183074771Y-106632496D01*
X183099682Y-106661407D01*
X183105960Y-106669312D01*
X183113951Y-106680250D01*
X183124869Y-106691168D01*
X183131227Y-106698015D01*
X183163616Y-106735604D01*
X183171151Y-106740488D01*
X183177567Y-106746085D01*
X183189192Y-106755491D01*
X183541673Y-107107972D01*
X183575699Y-107170284D01*
X183574285Y-107229677D01*
X183532577Y-107385335D01*
X183513796Y-107600000D01*
X183532577Y-107814665D01*
X183534001Y-107819978D01*
X183534001Y-107819980D01*
X183580012Y-107991695D01*
X183588348Y-108022807D01*
X183590670Y-108027787D01*
X183590671Y-108027789D01*
X183677090Y-108213115D01*
X183677093Y-108213120D01*
X183679416Y-108218102D01*
X183682572Y-108222609D01*
X183682573Y-108222611D01*
X183797467Y-108386696D01*
X183803013Y-108394617D01*
X183955383Y-108546987D01*
X183959891Y-108550144D01*
X183959894Y-108550146D01*
X184118926Y-108661501D01*
X184131898Y-108670584D01*
X184136880Y-108672907D01*
X184136885Y-108672910D01*
X184317092Y-108756942D01*
X184327193Y-108761652D01*
X184332501Y-108763074D01*
X184332503Y-108763075D01*
X184530020Y-108815999D01*
X184530022Y-108815999D01*
X184535335Y-108817423D01*
X184750000Y-108836204D01*
X184964665Y-108817423D01*
X184969978Y-108815999D01*
X184969980Y-108815999D01*
X185167497Y-108763075D01*
X185167499Y-108763074D01*
X185172807Y-108761652D01*
X185182908Y-108756942D01*
X185363115Y-108672910D01*
X185363120Y-108672907D01*
X185368102Y-108670584D01*
X185381074Y-108661501D01*
X185540106Y-108550146D01*
X185540109Y-108550144D01*
X185544617Y-108546987D01*
X185696987Y-108394617D01*
X185702534Y-108386696D01*
X185817427Y-108222611D01*
X185817428Y-108222609D01*
X185820584Y-108218102D01*
X185822907Y-108213120D01*
X185822910Y-108213115D01*
X185909329Y-108027789D01*
X185909330Y-108027787D01*
X185911652Y-108022807D01*
X185919989Y-107991695D01*
X185965999Y-107819980D01*
X185965999Y-107819978D01*
X185967423Y-107814665D01*
X185986204Y-107600000D01*
X185967423Y-107385335D01*
X185933867Y-107260101D01*
X185922942Y-107219327D01*
X185924632Y-107148350D01*
X185964426Y-107089555D01*
X186029691Y-107061607D01*
X186099704Y-107073381D01*
X186147862Y-107114446D01*
X186249850Y-107260101D01*
X186249855Y-107260107D01*
X186253013Y-107264617D01*
X186405383Y-107416987D01*
X186409891Y-107420144D01*
X186409894Y-107420146D01*
X186520073Y-107497294D01*
X186581898Y-107540584D01*
X186586880Y-107542907D01*
X186586885Y-107542910D01*
X186764654Y-107625805D01*
X186817939Y-107672723D01*
X186837400Y-107741000D01*
X186816858Y-107808960D01*
X186764654Y-107854195D01*
X186586885Y-107937090D01*
X186586880Y-107937093D01*
X186581898Y-107939416D01*
X186577391Y-107942572D01*
X186577389Y-107942573D01*
X186409894Y-108059854D01*
X186409891Y-108059856D01*
X186405383Y-108063013D01*
X186253013Y-108215383D01*
X186249856Y-108219891D01*
X186249854Y-108219894D01*
X186136931Y-108381165D01*
X186129416Y-108391898D01*
X186127093Y-108396880D01*
X186127090Y-108396885D01*
X186057096Y-108546987D01*
X186038348Y-108587193D01*
X186036926Y-108592501D01*
X186036925Y-108592503D01*
X186009176Y-108696066D01*
X185982577Y-108795335D01*
X185963796Y-109010000D01*
X185982577Y-109224665D01*
X185984001Y-109229978D01*
X185984001Y-109229980D01*
X186021793Y-109371021D01*
X186038348Y-109432807D01*
X186040670Y-109437787D01*
X186040671Y-109437789D01*
X186127090Y-109623115D01*
X186127093Y-109623120D01*
X186129416Y-109628102D01*
X186132572Y-109632609D01*
X186132573Y-109632611D01*
X186235798Y-109780031D01*
X186253013Y-109804617D01*
X186405383Y-109956987D01*
X186409891Y-109960144D01*
X186409894Y-109960146D01*
X186520073Y-110037294D01*
X186581898Y-110080584D01*
X186586880Y-110082907D01*
X186586885Y-110082910D01*
X186764654Y-110165805D01*
X186817939Y-110212723D01*
X186837400Y-110281000D01*
X186816858Y-110348960D01*
X186764654Y-110394195D01*
X186586885Y-110477090D01*
X186586880Y-110477093D01*
X186581898Y-110479416D01*
X186577391Y-110482572D01*
X186577389Y-110482573D01*
X186409894Y-110599854D01*
X186409891Y-110599856D01*
X186405383Y-110603013D01*
X186253013Y-110755383D01*
X186129416Y-110931898D01*
X186127093Y-110936880D01*
X186127090Y-110936885D01*
X186094584Y-111006595D01*
X186038348Y-111127193D01*
X185982577Y-111335335D01*
X185963796Y-111550000D01*
X185982577Y-111764665D01*
X186038348Y-111972807D01*
X186040670Y-111977787D01*
X186040671Y-111977789D01*
X186127090Y-112163115D01*
X186127093Y-112163120D01*
X186129416Y-112168102D01*
X186132572Y-112172609D01*
X186132573Y-112172611D01*
X186201883Y-112271595D01*
X186253013Y-112344617D01*
X186405383Y-112496987D01*
X186409891Y-112500144D01*
X186409894Y-112500146D01*
X186520073Y-112577294D01*
X186581898Y-112620584D01*
X186586880Y-112622907D01*
X186586885Y-112622910D01*
X186764654Y-112705805D01*
X186817939Y-112752723D01*
X186837400Y-112821000D01*
X186816858Y-112888960D01*
X186764654Y-112934195D01*
X186586885Y-113017090D01*
X186586880Y-113017093D01*
X186581898Y-113019416D01*
X186577391Y-113022572D01*
X186577389Y-113022573D01*
X186409894Y-113139854D01*
X186409891Y-113139856D01*
X186405383Y-113143013D01*
X186253013Y-113295383D01*
X186129416Y-113471898D01*
X186127093Y-113476880D01*
X186127090Y-113476885D01*
X186040671Y-113662211D01*
X186038348Y-113667193D01*
X185982577Y-113875335D01*
X185963796Y-114090000D01*
X185982577Y-114304665D01*
X185984001Y-114309978D01*
X185984001Y-114309980D01*
X186028398Y-114475671D01*
X186038348Y-114512807D01*
X186040670Y-114517787D01*
X186040671Y-114517789D01*
X186127090Y-114703115D01*
X186127093Y-114703120D01*
X186129416Y-114708102D01*
X186132572Y-114712609D01*
X186132573Y-114712611D01*
X186225199Y-114844894D01*
X186253013Y-114884617D01*
X186405383Y-115036987D01*
X186409891Y-115040144D01*
X186409894Y-115040146D01*
X186513581Y-115112748D01*
X186581898Y-115160584D01*
X186586880Y-115162907D01*
X186586885Y-115162910D01*
X186764654Y-115245805D01*
X186817939Y-115292723D01*
X186837400Y-115361000D01*
X186816858Y-115428960D01*
X186764654Y-115474195D01*
X186586885Y-115557090D01*
X186586880Y-115557093D01*
X186581898Y-115559416D01*
X186577391Y-115562572D01*
X186577389Y-115562573D01*
X186409894Y-115679854D01*
X186409891Y-115679856D01*
X186405383Y-115683013D01*
X186253013Y-115835383D01*
X186249853Y-115839897D01*
X186248195Y-115841872D01*
X186189085Y-115881199D01*
X186118097Y-115882325D01*
X186057770Y-115844894D01*
X186027256Y-115780789D01*
X186026152Y-115749900D01*
X186035725Y-115640476D01*
X186035725Y-115640475D01*
X186036204Y-115635000D01*
X186017423Y-115420335D01*
X186010312Y-115393796D01*
X185963075Y-115217503D01*
X185963074Y-115217501D01*
X185961652Y-115212193D01*
X185947908Y-115182718D01*
X185872910Y-115021885D01*
X185872907Y-115021880D01*
X185870584Y-115016898D01*
X185867427Y-115012389D01*
X185750146Y-114844894D01*
X185750144Y-114844891D01*
X185746987Y-114840383D01*
X185594617Y-114688013D01*
X185590109Y-114684856D01*
X185590106Y-114684854D01*
X185422611Y-114567573D01*
X185422609Y-114567572D01*
X185418102Y-114564416D01*
X185413120Y-114562093D01*
X185413115Y-114562090D01*
X185227789Y-114475671D01*
X185227787Y-114475670D01*
X185222807Y-114473348D01*
X185217499Y-114471926D01*
X185217497Y-114471925D01*
X185019980Y-114419001D01*
X185019978Y-114419001D01*
X185014665Y-114417577D01*
X184800000Y-114398796D01*
X184585335Y-114417577D01*
X184580022Y-114419001D01*
X184580020Y-114419001D01*
X184382503Y-114471925D01*
X184382501Y-114471926D01*
X184377193Y-114473348D01*
X184372213Y-114475670D01*
X184372211Y-114475671D01*
X184186885Y-114562090D01*
X184186880Y-114562093D01*
X184181898Y-114564416D01*
X184177391Y-114567572D01*
X184177389Y-114567573D01*
X184009894Y-114684854D01*
X184009891Y-114684856D01*
X184005383Y-114688013D01*
X183853013Y-114840383D01*
X183849856Y-114844891D01*
X183849854Y-114844894D01*
X183732573Y-115012389D01*
X183729416Y-115016898D01*
X183727093Y-115021880D01*
X183727090Y-115021885D01*
X183652092Y-115182718D01*
X183638348Y-115212193D01*
X183636926Y-115217501D01*
X183636925Y-115217503D01*
X183589688Y-115393796D01*
X183582577Y-115420335D01*
X183563796Y-115635000D01*
X183582577Y-115849665D01*
X183584001Y-115854978D01*
X183584001Y-115854980D01*
X183624839Y-116007389D01*
X183638348Y-116057807D01*
X183640670Y-116062787D01*
X183640671Y-116062789D01*
X183727090Y-116248115D01*
X183727093Y-116248120D01*
X183729416Y-116253102D01*
X183732572Y-116257609D01*
X183732573Y-116257611D01*
X183846850Y-116420815D01*
X183853013Y-116429617D01*
X184005383Y-116581987D01*
X184009891Y-116585144D01*
X184009894Y-116585146D01*
X184177389Y-116702427D01*
X184181898Y-116705584D01*
X184186880Y-116707907D01*
X184186885Y-116707910D01*
X184364654Y-116790805D01*
X184417939Y-116837723D01*
X184437400Y-116906000D01*
X184416858Y-116973960D01*
X184364654Y-117019195D01*
X184186885Y-117102090D01*
X184186880Y-117102093D01*
X184181898Y-117104416D01*
X184177391Y-117107572D01*
X184177389Y-117107573D01*
X184009894Y-117224854D01*
X184009891Y-117224856D01*
X184005383Y-117228013D01*
X183853013Y-117380383D01*
X183849856Y-117384891D01*
X183849854Y-117384894D01*
X183733617Y-117550898D01*
X183729416Y-117556898D01*
X183727093Y-117561880D01*
X183727090Y-117561885D01*
X183640671Y-117747211D01*
X183638348Y-117752193D01*
X183636926Y-117757501D01*
X183636925Y-117757503D01*
X183589688Y-117933796D01*
X183582577Y-117960335D01*
X183563796Y-118175000D01*
X183582577Y-118389665D01*
X183584001Y-118394978D01*
X183584001Y-118394980D01*
X183624839Y-118547389D01*
X183638348Y-118597807D01*
X183640670Y-118602787D01*
X183640671Y-118602789D01*
X183727090Y-118788115D01*
X183727093Y-118788120D01*
X183729416Y-118793102D01*
X183732572Y-118797609D01*
X183732573Y-118797611D01*
X183846850Y-118960815D01*
X183853013Y-118969617D01*
X184005383Y-119121987D01*
X184009891Y-119125144D01*
X184009894Y-119125146D01*
X184137201Y-119214287D01*
X184181529Y-119269744D01*
X184188838Y-119340363D01*
X184156807Y-119403724D01*
X184095606Y-119439709D01*
X184064930Y-119443500D01*
X182211989Y-119443500D01*
X182143868Y-119423498D01*
X182122894Y-119406595D01*
X179773115Y-117056816D01*
X179739089Y-116994504D01*
X179736222Y-116965961D01*
X179736390Y-116953962D01*
X179736390Y-116953956D01*
X179736445Y-116950000D01*
X179716901Y-116775764D01*
X179664235Y-116624524D01*
X179661557Y-116616835D01*
X179661556Y-116616833D01*
X179659242Y-116610188D01*
X179639185Y-116578090D01*
X179570064Y-116467473D01*
X179570063Y-116467471D01*
X179566332Y-116461501D01*
X179538540Y-116433514D01*
X179447754Y-116342094D01*
X179442789Y-116337094D01*
X179414328Y-116319032D01*
X179367530Y-116265645D01*
X179357024Y-116195430D01*
X179386147Y-116130681D01*
X179392747Y-116123552D01*
X179690497Y-115825802D01*
X179752809Y-115791776D01*
X179823624Y-115796841D01*
X179862585Y-115822365D01*
X179863378Y-115821407D01*
X179868808Y-115825900D01*
X179873701Y-115830966D01*
X179879593Y-115834821D01*
X179879597Y-115834825D01*
X179964457Y-115890355D01*
X180020410Y-115926970D01*
X180027014Y-115929426D01*
X180178140Y-115985629D01*
X180178142Y-115985629D01*
X180184742Y-115988084D01*
X180191725Y-115989016D01*
X180191726Y-115989016D01*
X180351549Y-116010342D01*
X180351553Y-116010342D01*
X180358530Y-116011273D01*
X180365541Y-116010635D01*
X180365545Y-116010635D01*
X180503105Y-115998115D01*
X180533137Y-115995382D01*
X180539839Y-115993204D01*
X180539841Y-115993204D01*
X180693185Y-115943380D01*
X180693188Y-115943379D01*
X180699884Y-115941203D01*
X180850484Y-115851427D01*
X180855578Y-115846576D01*
X180855582Y-115846573D01*
X180924833Y-115780625D01*
X180977452Y-115730517D01*
X181074477Y-115584482D01*
X181136737Y-115420581D01*
X181150001Y-115326204D01*
X181160587Y-115250883D01*
X181160588Y-115250875D01*
X181161138Y-115246959D01*
X181161445Y-115225000D01*
X181141901Y-115050764D01*
X181138775Y-115041785D01*
X181086557Y-114891835D01*
X181086556Y-114891833D01*
X181084242Y-114885188D01*
X181027205Y-114793910D01*
X180995064Y-114742473D01*
X180995063Y-114742471D01*
X180991332Y-114736501D01*
X180978843Y-114723924D01*
X180872754Y-114617094D01*
X180867789Y-114612094D01*
X180861846Y-114608322D01*
X180861843Y-114608320D01*
X180780270Y-114556552D01*
X180719755Y-114518148D01*
X180689843Y-114507497D01*
X180561220Y-114461696D01*
X180561215Y-114461695D01*
X180554585Y-114459334D01*
X180547597Y-114458501D01*
X180547594Y-114458500D01*
X180427307Y-114444157D01*
X180380490Y-114438574D01*
X180373487Y-114439310D01*
X180373486Y-114439310D01*
X180213122Y-114456165D01*
X180213120Y-114456166D01*
X180206122Y-114456901D01*
X180040148Y-114513403D01*
X180026296Y-114521925D01*
X179896823Y-114601577D01*
X179896820Y-114601579D01*
X179890816Y-114605273D01*
X179811929Y-114682525D01*
X179749266Y-114715894D01*
X179723773Y-114718500D01*
X179645848Y-114718500D01*
X179633780Y-114717152D01*
X179633741Y-114717641D01*
X179624794Y-114716921D01*
X179616038Y-114714940D01*
X179572503Y-114717641D01*
X179562558Y-114718258D01*
X179554756Y-114718500D01*
X179538634Y-114718500D01*
X179534203Y-114719135D01*
X179534198Y-114719135D01*
X179530093Y-114719723D01*
X179528340Y-114719974D01*
X179518282Y-114721005D01*
X179471232Y-114723924D01*
X179462785Y-114726974D01*
X179459683Y-114727616D01*
X179443298Y-114731701D01*
X179440265Y-114732588D01*
X179431381Y-114733860D01*
X179423214Y-114737574D01*
X179423212Y-114737574D01*
X179388467Y-114753372D01*
X179379099Y-114757185D01*
X179334768Y-114773188D01*
X179327525Y-114778479D01*
X179324768Y-114779945D01*
X179310118Y-114788506D01*
X179307476Y-114790196D01*
X179299307Y-114793910D01*
X179292507Y-114799769D01*
X179292504Y-114799771D01*
X179263593Y-114824682D01*
X179255688Y-114830960D01*
X179244750Y-114838951D01*
X179233832Y-114849869D01*
X179226985Y-114856227D01*
X179189396Y-114888616D01*
X179184512Y-114896151D01*
X179178915Y-114902567D01*
X179169509Y-114914192D01*
X177141948Y-116941753D01*
X177132461Y-116949334D01*
X177132779Y-116949708D01*
X177125946Y-116955523D01*
X177118352Y-116960315D01*
X177088157Y-116994504D01*
X177082876Y-117000484D01*
X177077530Y-117006171D01*
X177066136Y-117017565D01*
X177059889Y-117025900D01*
X177053519Y-117033724D01*
X177022311Y-117069061D01*
X177018495Y-117077188D01*
X177016765Y-117079822D01*
X177008054Y-117094319D01*
X177006540Y-117097085D01*
X177001158Y-117104266D01*
X176998008Y-117112669D01*
X176984613Y-117148399D01*
X176980686Y-117157718D01*
X176960651Y-117200391D01*
X176959270Y-117209261D01*
X176958345Y-117212286D01*
X176954062Y-117228615D01*
X176953382Y-117231708D01*
X176950229Y-117240118D01*
X176949564Y-117249069D01*
X176946736Y-117287124D01*
X176945582Y-117297173D01*
X176943500Y-117310544D01*
X176943500Y-117325986D01*
X176943154Y-117335324D01*
X176939477Y-117384804D01*
X176941350Y-117393578D01*
X176941928Y-117402059D01*
X176943500Y-117416950D01*
X176943500Y-119199161D01*
X176923498Y-119267282D01*
X176905657Y-119289185D01*
X176853396Y-119340363D01*
X176840549Y-119352944D01*
X176745572Y-119500319D01*
X176743163Y-119506939D01*
X176743161Y-119506942D01*
X176711909Y-119592807D01*
X176685606Y-119665074D01*
X176684723Y-119672062D01*
X176684723Y-119672063D01*
X176683372Y-119682761D01*
X176663632Y-119839020D01*
X176680741Y-120013511D01*
X176736083Y-120179876D01*
X176739730Y-120185898D01*
X176739731Y-120185900D01*
X176820765Y-120319702D01*
X176826908Y-120329846D01*
X176831797Y-120334909D01*
X176831798Y-120334910D01*
X176876394Y-120381090D01*
X176948701Y-120455966D01*
X176954593Y-120459821D01*
X176954597Y-120459825D01*
X177027112Y-120507277D01*
X177095410Y-120551970D01*
X177102014Y-120554426D01*
X177253140Y-120610629D01*
X177253142Y-120610629D01*
X177259742Y-120613084D01*
X177266725Y-120614016D01*
X177266726Y-120614016D01*
X177426549Y-120635342D01*
X177426553Y-120635342D01*
X177433530Y-120636273D01*
X177440541Y-120635635D01*
X177440545Y-120635635D01*
X177578105Y-120623115D01*
X177608137Y-120620382D01*
X177614839Y-120618204D01*
X177614841Y-120618204D01*
X177768185Y-120568380D01*
X177768188Y-120568379D01*
X177774884Y-120566203D01*
X177925484Y-120476427D01*
X177930578Y-120471576D01*
X177930582Y-120471573D01*
X178006955Y-120398843D01*
X178052452Y-120355517D01*
X178128813Y-120240584D01*
X178145576Y-120215354D01*
X178145577Y-120215352D01*
X178149477Y-120209482D01*
X178211737Y-120045581D01*
X178236138Y-119871959D01*
X178236445Y-119850000D01*
X178216901Y-119675764D01*
X178213179Y-119665074D01*
X178161557Y-119516835D01*
X178161556Y-119516833D01*
X178159242Y-119510188D01*
X178115202Y-119439709D01*
X178070065Y-119367474D01*
X178070062Y-119367470D01*
X178066332Y-119361501D01*
X178057835Y-119352944D01*
X177993095Y-119287752D01*
X177959287Y-119225321D01*
X177956500Y-119198967D01*
X177956500Y-117611989D01*
X177976502Y-117543868D01*
X177993405Y-117522894D01*
X178122583Y-117393716D01*
X178184895Y-117359690D01*
X178255710Y-117364755D01*
X178312546Y-117407302D01*
X178319452Y-117417536D01*
X178323258Y-117423820D01*
X178323260Y-117423823D01*
X178326908Y-117429846D01*
X178448701Y-117555966D01*
X178454593Y-117559821D01*
X178454597Y-117559825D01*
X178488156Y-117581785D01*
X178595410Y-117651970D01*
X178602014Y-117654426D01*
X178753140Y-117710629D01*
X178753142Y-117710629D01*
X178759742Y-117713084D01*
X178766725Y-117714016D01*
X178766726Y-117714016D01*
X178926549Y-117735342D01*
X178926553Y-117735342D01*
X178933530Y-117736273D01*
X178953988Y-117734411D01*
X179023640Y-117748159D01*
X179054499Y-117770798D01*
X181541753Y-120258052D01*
X181549334Y-120267539D01*
X181549708Y-120267221D01*
X181555523Y-120274054D01*
X181560315Y-120281648D01*
X181600484Y-120317124D01*
X181606171Y-120322470D01*
X181617565Y-120333864D01*
X181625887Y-120340101D01*
X181633725Y-120346482D01*
X181662332Y-120371747D01*
X181662335Y-120371749D01*
X181669061Y-120377689D01*
X181677189Y-120381505D01*
X181679835Y-120383243D01*
X181694325Y-120391950D01*
X181697084Y-120393460D01*
X181704266Y-120398843D01*
X181748422Y-120415396D01*
X181757708Y-120419309D01*
X181800391Y-120439349D01*
X181809264Y-120440731D01*
X181812291Y-120441656D01*
X181828635Y-120445944D01*
X181831717Y-120446622D01*
X181840118Y-120449771D01*
X181849064Y-120450436D01*
X181849065Y-120450436D01*
X181887124Y-120453264D01*
X181897173Y-120454418D01*
X181910544Y-120456500D01*
X181925986Y-120456500D01*
X181935324Y-120456846D01*
X181984804Y-120460523D01*
X181993578Y-120458650D01*
X182002059Y-120458072D01*
X182016950Y-120456500D01*
X182739445Y-120456500D01*
X182807566Y-120476502D01*
X182854059Y-120530158D01*
X182864163Y-120600432D01*
X182852303Y-120638527D01*
X182849390Y-120644395D01*
X182845572Y-120650319D01*
X182843164Y-120656935D01*
X182843162Y-120656939D01*
X182803136Y-120766910D01*
X182785606Y-120815074D01*
X182784723Y-120822064D01*
X182769300Y-120944150D01*
X182740918Y-121009227D01*
X182684900Y-121047636D01*
X182639152Y-121063210D01*
X182565148Y-121088403D01*
X182559144Y-121092097D01*
X182421823Y-121176577D01*
X182421820Y-121176579D01*
X182415816Y-121180273D01*
X182410781Y-121185204D01*
X182410778Y-121185206D01*
X182306633Y-121287193D01*
X182290549Y-121302944D01*
X182195572Y-121450319D01*
X182193163Y-121456939D01*
X182193161Y-121456942D01*
X182165976Y-121531632D01*
X182135606Y-121615074D01*
X182113632Y-121789020D01*
X182130741Y-121963511D01*
X182186083Y-122129876D01*
X182189730Y-122135898D01*
X182189731Y-122135900D01*
X182233252Y-122207761D01*
X182276908Y-122279846D01*
X182281797Y-122284909D01*
X182281798Y-122284910D01*
X182321963Y-122326502D01*
X182398701Y-122405966D01*
X182404593Y-122409821D01*
X182404597Y-122409825D01*
X182489457Y-122465355D01*
X182545410Y-122501970D01*
X182552014Y-122504426D01*
X182703140Y-122560629D01*
X182703142Y-122560629D01*
X182709742Y-122563084D01*
X182716725Y-122564016D01*
X182716726Y-122564016D01*
X182876549Y-122585342D01*
X182876553Y-122585342D01*
X182883530Y-122586273D01*
X182890541Y-122585635D01*
X182890545Y-122585635D01*
X183028105Y-122573115D01*
X183058137Y-122570382D01*
X183064839Y-122568204D01*
X183064841Y-122568204D01*
X183218185Y-122518380D01*
X183218188Y-122518379D01*
X183224884Y-122516203D01*
X183375484Y-122426427D01*
X183441018Y-122364020D01*
X183464925Y-122341254D01*
X183528050Y-122308762D01*
X183551817Y-122306500D01*
X184488011Y-122306500D01*
X184556132Y-122326502D01*
X184577106Y-122343405D01*
X185931595Y-123697894D01*
X185965621Y-123760206D01*
X185968500Y-123786989D01*
X185968500Y-125136158D01*
X185968012Y-125136158D01*
X185953650Y-125202705D01*
X185903530Y-125252989D01*
X185842964Y-125268500D01*
X173357040Y-125268500D01*
X173288919Y-125248498D01*
X173242426Y-125194842D01*
X173231869Y-125136158D01*
X173231500Y-125136158D01*
X173231500Y-123363842D01*
X173220462Y-123288856D01*
X173164487Y-123174849D01*
X173119285Y-123129726D01*
X173081972Y-123092478D01*
X173074601Y-123085120D01*
X173062953Y-123079426D01*
X173018499Y-123057697D01*
X172960497Y-123029345D01*
X172927716Y-123024563D01*
X172890684Y-123019160D01*
X172890680Y-123019160D01*
X172886158Y-123018500D01*
X172675299Y-123018500D01*
X172607178Y-122998498D01*
X172560685Y-122944842D01*
X172550581Y-122874568D01*
X172580075Y-122809988D01*
X172612299Y-122783381D01*
X172613118Y-122782908D01*
X172618102Y-122780584D01*
X172717621Y-122710900D01*
X172790106Y-122660146D01*
X172790109Y-122660144D01*
X172794617Y-122656987D01*
X172946987Y-122504617D01*
X172951544Y-122498110D01*
X173067427Y-122332611D01*
X173067428Y-122332609D01*
X173070584Y-122328102D01*
X173072907Y-122323120D01*
X173072910Y-122323115D01*
X173159329Y-122137789D01*
X173159330Y-122137787D01*
X173161652Y-122132807D01*
X173163179Y-122127110D01*
X173215999Y-121929980D01*
X173215999Y-121929978D01*
X173217423Y-121924665D01*
X173236204Y-121710000D01*
X173217423Y-121495335D01*
X173167459Y-121308866D01*
X173163075Y-121292503D01*
X173163074Y-121292501D01*
X173161652Y-121287193D01*
X173159329Y-121282211D01*
X173072910Y-121096885D01*
X173072907Y-121096880D01*
X173070584Y-121091898D01*
X173067427Y-121087389D01*
X172950146Y-120919894D01*
X172950144Y-120919891D01*
X172946987Y-120915383D01*
X172794617Y-120763013D01*
X172790109Y-120759856D01*
X172790106Y-120759854D01*
X172622611Y-120642573D01*
X172622609Y-120642572D01*
X172618102Y-120639416D01*
X172613120Y-120637093D01*
X172613115Y-120637090D01*
X172435346Y-120554195D01*
X172382061Y-120507277D01*
X172362600Y-120439000D01*
X172383142Y-120371040D01*
X172435346Y-120325805D01*
X172613115Y-120242910D01*
X172613120Y-120242907D01*
X172618102Y-120240584D01*
X172622611Y-120237427D01*
X172790106Y-120120146D01*
X172790109Y-120120144D01*
X172794617Y-120116987D01*
X172946987Y-119964617D01*
X173024469Y-119853962D01*
X173067427Y-119792611D01*
X173067428Y-119792609D01*
X173070584Y-119788102D01*
X173072907Y-119783120D01*
X173072910Y-119783115D01*
X173159329Y-119597789D01*
X173159330Y-119597787D01*
X173161652Y-119592807D01*
X173182009Y-119516835D01*
X173215999Y-119389980D01*
X173215999Y-119389978D01*
X173217423Y-119384665D01*
X173236204Y-119170000D01*
X173217423Y-118955335D01*
X173208672Y-118922675D01*
X173163075Y-118752503D01*
X173163074Y-118752501D01*
X173161652Y-118747193D01*
X173089516Y-118592497D01*
X173072910Y-118556885D01*
X173072907Y-118556880D01*
X173070584Y-118551898D01*
X172960709Y-118394980D01*
X172950146Y-118379894D01*
X172950144Y-118379891D01*
X172946987Y-118375383D01*
X172794617Y-118223013D01*
X172790109Y-118219856D01*
X172790106Y-118219854D01*
X172622611Y-118102573D01*
X172622609Y-118102572D01*
X172618102Y-118099416D01*
X172613120Y-118097093D01*
X172613115Y-118097090D01*
X172435346Y-118014195D01*
X172382061Y-117967277D01*
X172362600Y-117899000D01*
X172383142Y-117831040D01*
X172435346Y-117785805D01*
X172613115Y-117702910D01*
X172613120Y-117702907D01*
X172618102Y-117700584D01*
X172687530Y-117651970D01*
X172790106Y-117580146D01*
X172790109Y-117580144D01*
X172794617Y-117576987D01*
X172946987Y-117424617D01*
X172951946Y-117417536D01*
X173067427Y-117252611D01*
X173067428Y-117252609D01*
X173070584Y-117248102D01*
X173072907Y-117243120D01*
X173072910Y-117243115D01*
X173159329Y-117057789D01*
X173159330Y-117057787D01*
X173161652Y-117052807D01*
X173167780Y-117029939D01*
X173215999Y-116849980D01*
X173215999Y-116849978D01*
X173217423Y-116844665D01*
X173236204Y-116630000D01*
X173217423Y-116415335D01*
X173177314Y-116265645D01*
X173163075Y-116212503D01*
X173163074Y-116212501D01*
X173161652Y-116207193D01*
X173125974Y-116130681D01*
X173072910Y-116016885D01*
X173072907Y-116016880D01*
X173070584Y-116011898D01*
X173059467Y-115996021D01*
X172950146Y-115839894D01*
X172950144Y-115839891D01*
X172946987Y-115835383D01*
X172794617Y-115683013D01*
X172790109Y-115679856D01*
X172790106Y-115679854D01*
X172622611Y-115562573D01*
X172622609Y-115562572D01*
X172618102Y-115559416D01*
X172613120Y-115557093D01*
X172613115Y-115557090D01*
X172435346Y-115474195D01*
X172382061Y-115427277D01*
X172362600Y-115359000D01*
X172383142Y-115291040D01*
X172435346Y-115245805D01*
X172613115Y-115162910D01*
X172613120Y-115162907D01*
X172618102Y-115160584D01*
X172686419Y-115112748D01*
X172790106Y-115040146D01*
X172790109Y-115040144D01*
X172794617Y-115036987D01*
X172946987Y-114884617D01*
X172974802Y-114844894D01*
X173067427Y-114712611D01*
X173067428Y-114712609D01*
X173070584Y-114708102D01*
X173072907Y-114703120D01*
X173072910Y-114703115D01*
X173159329Y-114517789D01*
X173159330Y-114517787D01*
X173161652Y-114512807D01*
X173171603Y-114475671D01*
X173215999Y-114309980D01*
X173215999Y-114309978D01*
X173217423Y-114304665D01*
X173236204Y-114090000D01*
X173217423Y-113875335D01*
X173161652Y-113667193D01*
X173159329Y-113662211D01*
X173072910Y-113476885D01*
X173072907Y-113476880D01*
X173070584Y-113471898D01*
X172946987Y-113295383D01*
X172794617Y-113143013D01*
X172790109Y-113139856D01*
X172790106Y-113139854D01*
X172622611Y-113022573D01*
X172622609Y-113022572D01*
X172618102Y-113019416D01*
X172613120Y-113017093D01*
X172613115Y-113017090D01*
X172435346Y-112934195D01*
X172382061Y-112887277D01*
X172362600Y-112819000D01*
X172383142Y-112751040D01*
X172435346Y-112705805D01*
X172613115Y-112622910D01*
X172613120Y-112622907D01*
X172618102Y-112620584D01*
X172679927Y-112577294D01*
X172790106Y-112500146D01*
X172790109Y-112500144D01*
X172794617Y-112496987D01*
X172946987Y-112344617D01*
X172998118Y-112271595D01*
X173067427Y-112172611D01*
X173067428Y-112172609D01*
X173070584Y-112168102D01*
X173072907Y-112163120D01*
X173072910Y-112163115D01*
X173088701Y-112129250D01*
X173135618Y-112075965D01*
X173202896Y-112056500D01*
X177573011Y-112056500D01*
X177641132Y-112076502D01*
X177687625Y-112130158D01*
X177697729Y-112200432D01*
X177668235Y-112265012D01*
X177662106Y-112271595D01*
X174966948Y-114966753D01*
X174957461Y-114974334D01*
X174957779Y-114974708D01*
X174950946Y-114980523D01*
X174943352Y-114985315D01*
X174910891Y-115022070D01*
X174907876Y-115025484D01*
X174902530Y-115031171D01*
X174891136Y-115042565D01*
X174884889Y-115050900D01*
X174878519Y-115058724D01*
X174847311Y-115094061D01*
X174843495Y-115102188D01*
X174841765Y-115104822D01*
X174833054Y-115119319D01*
X174831540Y-115122085D01*
X174826158Y-115129266D01*
X174823008Y-115137669D01*
X174809613Y-115173399D01*
X174805686Y-115182718D01*
X174785651Y-115225391D01*
X174784270Y-115234261D01*
X174783345Y-115237286D01*
X174779062Y-115253615D01*
X174778382Y-115256708D01*
X174775229Y-115265118D01*
X174774564Y-115274069D01*
X174771736Y-115312124D01*
X174770582Y-115322173D01*
X174768500Y-115335544D01*
X174768500Y-115350986D01*
X174768154Y-115360324D01*
X174764477Y-115409804D01*
X174766350Y-115418578D01*
X174766928Y-115427059D01*
X174768500Y-115441950D01*
X174768500Y-121724161D01*
X174748498Y-121792282D01*
X174730657Y-121814185D01*
X174670584Y-121873013D01*
X174665549Y-121877944D01*
X174570572Y-122025319D01*
X174568163Y-122031939D01*
X174568161Y-122031942D01*
X174530587Y-122135176D01*
X174510606Y-122190074D01*
X174509723Y-122197062D01*
X174509723Y-122197063D01*
X174508372Y-122207761D01*
X174488632Y-122364020D01*
X174505741Y-122538511D01*
X174561083Y-122704876D01*
X174651908Y-122854846D01*
X174656797Y-122859909D01*
X174656798Y-122859910D01*
X174688714Y-122892960D01*
X174773701Y-122980966D01*
X174779593Y-122984821D01*
X174779597Y-122984825D01*
X174864457Y-123040355D01*
X174920410Y-123076970D01*
X174927014Y-123079426D01*
X175078140Y-123135629D01*
X175078142Y-123135629D01*
X175084742Y-123138084D01*
X175091725Y-123139016D01*
X175091726Y-123139016D01*
X175251549Y-123160342D01*
X175251553Y-123160342D01*
X175258530Y-123161273D01*
X175265541Y-123160635D01*
X175265545Y-123160635D01*
X175403105Y-123148115D01*
X175433137Y-123145382D01*
X175439839Y-123143204D01*
X175439841Y-123143204D01*
X175593185Y-123093380D01*
X175593188Y-123093379D01*
X175599884Y-123091203D01*
X175750484Y-123001427D01*
X175755578Y-122996576D01*
X175755582Y-122996573D01*
X175828196Y-122927423D01*
X175877452Y-122880517D01*
X175974477Y-122734482D01*
X176036737Y-122570581D01*
X176059330Y-122409825D01*
X176060587Y-122400883D01*
X176060588Y-122400875D01*
X176061138Y-122396959D01*
X176061445Y-122375000D01*
X176041901Y-122200764D01*
X176038179Y-122190074D01*
X175986557Y-122041835D01*
X175986556Y-122041833D01*
X175984242Y-122035188D01*
X175965631Y-122005404D01*
X175895065Y-121892474D01*
X175895062Y-121892470D01*
X175891332Y-121886501D01*
X175882835Y-121877944D01*
X175818095Y-121812752D01*
X175784287Y-121750321D01*
X175781500Y-121723967D01*
X175781500Y-115636989D01*
X175801502Y-115568868D01*
X175818405Y-115547894D01*
X181393890Y-109972409D01*
X181456202Y-109938383D01*
X181481188Y-109935960D01*
X181483530Y-109936273D01*
X181658137Y-109920382D01*
X181664839Y-109918204D01*
X181664841Y-109918204D01*
X181818185Y-109868380D01*
X181818188Y-109868379D01*
X181824884Y-109866203D01*
X181975484Y-109776427D01*
X181980578Y-109771576D01*
X181980582Y-109771573D01*
X182053130Y-109702486D01*
X182102452Y-109655517D01*
X182199477Y-109509482D01*
X182261737Y-109345581D01*
X182278731Y-109224665D01*
X182285587Y-109175883D01*
X182285588Y-109175875D01*
X182286138Y-109171959D01*
X182286445Y-109150000D01*
X182272971Y-109029876D01*
X182267686Y-108982761D01*
X182267686Y-108982760D01*
X182266901Y-108975764D01*
X182250922Y-108929876D01*
X182211557Y-108816835D01*
X182211556Y-108816833D01*
X182209242Y-108810188D01*
X182168129Y-108744393D01*
X182120064Y-108667473D01*
X182120063Y-108667471D01*
X182116332Y-108661501D01*
X181992789Y-108537094D01*
X181986846Y-108533322D01*
X181986843Y-108533320D01*
X181897430Y-108476577D01*
X181844755Y-108443148D01*
X181765914Y-108415074D01*
X181686220Y-108386696D01*
X181686215Y-108386695D01*
X181679585Y-108384334D01*
X181672597Y-108383501D01*
X181672594Y-108383500D01*
X181552307Y-108369157D01*
X181505490Y-108363574D01*
X181498487Y-108364310D01*
X181498486Y-108364310D01*
X181338122Y-108381165D01*
X181338120Y-108381166D01*
X181331122Y-108381901D01*
X181165148Y-108438403D01*
X181159150Y-108442093D01*
X181159148Y-108442094D01*
X181129689Y-108460218D01*
X181107248Y-108474024D01*
X181105731Y-108474957D01*
X181037230Y-108493615D01*
X180972194Y-108474024D01*
X180929493Y-108446925D01*
X180844755Y-108393148D01*
X180811103Y-108381165D01*
X180686220Y-108336696D01*
X180686215Y-108336695D01*
X180679585Y-108334334D01*
X180672597Y-108333501D01*
X180672594Y-108333500D01*
X180538531Y-108317514D01*
X180505490Y-108313574D01*
X180498487Y-108314310D01*
X180498486Y-108314310D01*
X180338122Y-108331165D01*
X180338120Y-108331166D01*
X180331122Y-108331901D01*
X180165148Y-108388403D01*
X180151361Y-108396885D01*
X180021823Y-108476577D01*
X180021820Y-108476579D01*
X180015816Y-108480273D01*
X180010781Y-108485204D01*
X180010778Y-108485206D01*
X179901211Y-108592503D01*
X179890549Y-108602944D01*
X179795572Y-108750319D01*
X179793163Y-108756939D01*
X179793161Y-108756942D01*
X179742701Y-108895581D01*
X179735606Y-108915074D01*
X179713632Y-109089020D01*
X179714320Y-109096037D01*
X179714320Y-109096038D01*
X179715057Y-109103562D01*
X179701796Y-109173309D01*
X179678753Y-109204948D01*
X177877106Y-111006595D01*
X177814794Y-111040621D01*
X177788011Y-111043500D01*
X173202896Y-111043500D01*
X173134775Y-111023498D01*
X173088701Y-110970750D01*
X173072910Y-110936885D01*
X173072907Y-110936880D01*
X173070584Y-110931898D01*
X172946987Y-110755383D01*
X172794617Y-110603013D01*
X172790109Y-110599856D01*
X172790106Y-110599854D01*
X172622611Y-110482573D01*
X172622609Y-110482572D01*
X172618102Y-110479416D01*
X172613120Y-110477093D01*
X172613115Y-110477090D01*
X172435346Y-110394195D01*
X172382061Y-110347277D01*
X172362600Y-110279000D01*
X172383142Y-110211040D01*
X172435346Y-110165805D01*
X172613115Y-110082910D01*
X172613120Y-110082907D01*
X172618102Y-110080584D01*
X172679927Y-110037294D01*
X172790106Y-109960146D01*
X172790109Y-109960144D01*
X172794617Y-109956987D01*
X172946987Y-109804617D01*
X172964203Y-109780031D01*
X173067427Y-109632611D01*
X173067428Y-109632609D01*
X173070584Y-109628102D01*
X173072907Y-109623120D01*
X173072910Y-109623115D01*
X173159329Y-109437789D01*
X173159330Y-109437787D01*
X173161652Y-109432807D01*
X173178208Y-109371021D01*
X173215999Y-109229980D01*
X173215999Y-109229978D01*
X173217423Y-109224665D01*
X173236204Y-109010000D01*
X173217423Y-108795335D01*
X173183151Y-108667427D01*
X173173602Y-108631791D01*
X173175292Y-108560814D01*
X173206214Y-108510085D01*
X175372894Y-106343405D01*
X175435206Y-106309379D01*
X175461989Y-106306500D01*
X176799164Y-106306500D01*
X176867285Y-106326502D01*
X176889800Y-106344972D01*
X176948701Y-106405966D01*
X176954593Y-106409821D01*
X176954597Y-106409825D01*
X177021750Y-106453768D01*
X177095410Y-106501970D01*
X177200715Y-106541132D01*
X177229497Y-106551836D01*
X177286373Y-106594329D01*
X177311247Y-106660825D01*
X177296222Y-106730214D01*
X177274672Y-106759029D01*
X175977106Y-108056595D01*
X175914794Y-108090621D01*
X175888011Y-108093500D01*
X175550903Y-108093500D01*
X175482782Y-108073498D01*
X175461504Y-108056290D01*
X175392789Y-107987094D01*
X175386846Y-107983322D01*
X175386843Y-107983320D01*
X175283595Y-107917797D01*
X175244755Y-107893148D01*
X175200437Y-107877367D01*
X175086220Y-107836696D01*
X175086215Y-107836695D01*
X175079585Y-107834334D01*
X175072597Y-107833501D01*
X175072594Y-107833500D01*
X174952307Y-107819157D01*
X174905490Y-107813574D01*
X174898487Y-107814310D01*
X174898486Y-107814310D01*
X174738122Y-107831165D01*
X174738120Y-107831166D01*
X174731122Y-107831901D01*
X174565148Y-107888403D01*
X174524233Y-107913574D01*
X174421823Y-107976577D01*
X174421820Y-107976579D01*
X174415816Y-107980273D01*
X174410781Y-107985204D01*
X174410778Y-107985206D01*
X174300193Y-108093500D01*
X174290549Y-108102944D01*
X174195572Y-108250319D01*
X174193163Y-108256939D01*
X174193161Y-108256942D01*
X174144447Y-108390783D01*
X174135606Y-108415074D01*
X174134723Y-108422062D01*
X174134723Y-108422063D01*
X174131582Y-108446925D01*
X174113632Y-108589020D01*
X174130741Y-108763511D01*
X174186083Y-108929876D01*
X174189730Y-108935898D01*
X174189731Y-108935900D01*
X174270665Y-109069537D01*
X174276908Y-109079846D01*
X174281797Y-109084909D01*
X174281798Y-109084910D01*
X174306084Y-109110059D01*
X174398701Y-109205966D01*
X174404593Y-109209821D01*
X174404597Y-109209825D01*
X174489457Y-109265355D01*
X174545410Y-109301970D01*
X174552014Y-109304426D01*
X174703140Y-109360629D01*
X174703142Y-109360629D01*
X174709742Y-109363084D01*
X174716725Y-109364016D01*
X174716726Y-109364016D01*
X174876549Y-109385342D01*
X174876553Y-109385342D01*
X174883530Y-109386273D01*
X174890541Y-109385635D01*
X174890545Y-109385635D01*
X175028105Y-109373115D01*
X175058137Y-109370382D01*
X175064839Y-109368204D01*
X175064841Y-109368204D01*
X175218185Y-109318380D01*
X175218188Y-109318379D01*
X175224884Y-109316203D01*
X175375484Y-109226427D01*
X175436842Y-109167997D01*
X175464925Y-109141254D01*
X175528050Y-109108762D01*
X175551817Y-109106500D01*
X176079157Y-109106500D01*
X176091221Y-109107848D01*
X176091260Y-109107358D01*
X176100206Y-109108078D01*
X176108962Y-109110059D01*
X176162432Y-109106742D01*
X176170233Y-109106500D01*
X176186366Y-109106500D01*
X176190807Y-109105864D01*
X176190809Y-109105864D01*
X176196677Y-109105024D01*
X176206726Y-109103995D01*
X176244806Y-109101632D01*
X176253768Y-109101076D01*
X176262215Y-109098026D01*
X176265317Y-109097384D01*
X176281702Y-109093299D01*
X176284735Y-109092412D01*
X176293619Y-109091140D01*
X176301786Y-109087426D01*
X176301788Y-109087426D01*
X176336533Y-109071628D01*
X176345902Y-109067815D01*
X176381792Y-109054859D01*
X176381793Y-109054858D01*
X176390232Y-109051812D01*
X176397475Y-109046521D01*
X176400232Y-109045055D01*
X176414882Y-109036494D01*
X176417524Y-109034804D01*
X176425693Y-109031090D01*
X176432493Y-109025231D01*
X176432496Y-109025229D01*
X176461407Y-109000318D01*
X176469312Y-108994040D01*
X176480250Y-108986049D01*
X176491168Y-108975131D01*
X176498015Y-108968773D01*
X176528802Y-108942245D01*
X176535604Y-108936384D01*
X176540488Y-108928849D01*
X176546085Y-108922433D01*
X176555491Y-108910808D01*
X179683052Y-105783247D01*
X179692539Y-105775666D01*
X179692221Y-105775292D01*
X179699054Y-105769477D01*
X179706648Y-105764685D01*
X179742124Y-105724515D01*
X179747470Y-105718829D01*
X179758864Y-105707435D01*
X179765105Y-105699108D01*
X179771482Y-105691275D01*
X179796747Y-105662668D01*
X179796749Y-105662665D01*
X179802689Y-105655939D01*
X179806505Y-105647811D01*
X179808243Y-105645165D01*
X179816950Y-105630675D01*
X179818460Y-105627916D01*
X179823843Y-105620734D01*
X179840396Y-105576578D01*
X179844309Y-105567292D01*
X179864349Y-105524609D01*
X179865731Y-105515736D01*
X179866656Y-105512709D01*
X179870944Y-105496365D01*
X179871621Y-105493284D01*
X179874771Y-105484882D01*
X179875436Y-105475932D01*
X179875437Y-105475928D01*
X179875699Y-105472408D01*
X179876932Y-105469130D01*
X179877365Y-105467161D01*
X179877649Y-105467224D01*
X179900696Y-105405958D01*
X179914460Y-105390505D01*
X179972345Y-105335382D01*
X179972352Y-105335374D01*
X179977452Y-105330517D01*
X180041713Y-105233796D01*
X180070576Y-105190354D01*
X180070577Y-105190352D01*
X180074477Y-105184482D01*
X180136737Y-105020581D01*
X180161138Y-104846959D01*
X180161445Y-104825000D01*
X180141901Y-104650764D01*
X180137788Y-104638951D01*
X180086557Y-104491835D01*
X180086556Y-104491833D01*
X180084242Y-104485188D01*
X180062755Y-104450801D01*
X179995064Y-104342473D01*
X179995063Y-104342471D01*
X179991332Y-104336501D01*
X179982835Y-104327944D01*
X179872754Y-104217094D01*
X179867789Y-104212094D01*
X179861846Y-104208322D01*
X179861843Y-104208320D01*
X179776667Y-104154266D01*
X179719755Y-104118148D01*
X179692570Y-104108468D01*
X179561220Y-104061696D01*
X179561215Y-104061695D01*
X179554585Y-104059334D01*
X179547597Y-104058501D01*
X179547594Y-104058500D01*
X179427307Y-104044157D01*
X179380490Y-104038574D01*
X179373487Y-104039310D01*
X179373486Y-104039310D01*
X179213122Y-104056165D01*
X179213120Y-104056166D01*
X179206122Y-104056901D01*
X179040148Y-104113403D01*
X179026296Y-104121925D01*
X178896823Y-104201577D01*
X178896820Y-104201579D01*
X178890816Y-104205273D01*
X178885781Y-104210204D01*
X178885778Y-104210206D01*
X178770581Y-104323016D01*
X178765549Y-104327944D01*
X178686373Y-104450801D01*
X178632659Y-104497226D01*
X178565544Y-104507660D01*
X178405490Y-104488574D01*
X178398487Y-104489310D01*
X178398486Y-104489310D01*
X178238122Y-104506165D01*
X178238120Y-104506166D01*
X178231122Y-104506901D01*
X178216794Y-104511778D01*
X178176191Y-104518500D01*
X178174014Y-104518500D01*
X178164676Y-104518154D01*
X178128908Y-104515496D01*
X178115196Y-104514477D01*
X178106422Y-104516350D01*
X178097941Y-104516928D01*
X178083050Y-104518500D01*
X173545849Y-104518500D01*
X173533781Y-104517152D01*
X173533742Y-104517641D01*
X173524795Y-104516921D01*
X173516039Y-104514940D01*
X173472504Y-104517641D01*
X173462559Y-104518258D01*
X173454757Y-104518500D01*
X173438634Y-104518500D01*
X173428333Y-104519975D01*
X173418306Y-104521003D01*
X173417519Y-104521052D01*
X173348287Y-104505322D01*
X173298550Y-104454659D01*
X173284098Y-104385149D01*
X173289130Y-104358668D01*
X173330379Y-104222903D01*
X173332555Y-104212837D01*
X173333986Y-104201962D01*
X173331775Y-104187778D01*
X173318617Y-104184000D01*
X171872000Y-104184000D01*
X171803879Y-104163998D01*
X171757386Y-104110342D01*
X171746000Y-104058000D01*
X171746000Y-103802000D01*
X171766002Y-103733879D01*
X171819658Y-103687386D01*
X171872000Y-103676000D01*
X173318344Y-103676000D01*
X173331875Y-103672027D01*
X173333180Y-103662947D01*
X173291214Y-103495875D01*
X173287894Y-103486124D01*
X173202972Y-103290814D01*
X173198105Y-103281739D01*
X173082426Y-103102926D01*
X173076136Y-103094757D01*
X172932806Y-102937240D01*
X172925273Y-102930215D01*
X172758139Y-102798222D01*
X172749561Y-102792523D01*
X172580364Y-102699121D01*
X172530394Y-102648688D01*
X172515622Y-102579245D01*
X172540738Y-102512840D01*
X172588008Y-102474617D01*
X172613115Y-102462910D01*
X172613120Y-102462907D01*
X172618102Y-102460584D01*
X172640387Y-102444980D01*
X172790106Y-102340146D01*
X172790109Y-102340144D01*
X172794617Y-102336987D01*
X172946987Y-102184617D01*
X173065184Y-102015815D01*
X173067427Y-102012611D01*
X173067428Y-102012609D01*
X173070584Y-102008102D01*
X173072907Y-102003120D01*
X173072910Y-102003115D01*
X173159329Y-101817789D01*
X173159330Y-101817787D01*
X173161652Y-101812807D01*
X173170597Y-101779426D01*
X173215999Y-101609980D01*
X173215999Y-101609978D01*
X173217423Y-101604665D01*
X173236204Y-101390000D01*
X173217423Y-101175335D01*
X173192807Y-101083467D01*
X173163075Y-100972503D01*
X173163074Y-100972501D01*
X173161652Y-100967193D01*
X173141776Y-100924568D01*
X173072910Y-100776885D01*
X173072907Y-100776880D01*
X173070584Y-100771898D01*
X173005510Y-100678962D01*
X172950146Y-100599894D01*
X172950144Y-100599891D01*
X172946987Y-100595383D01*
X172794617Y-100443013D01*
X172790109Y-100439856D01*
X172790106Y-100439854D01*
X172622611Y-100322573D01*
X172622609Y-100322572D01*
X172618102Y-100319416D01*
X172613120Y-100317093D01*
X172613115Y-100317090D01*
X172435346Y-100234195D01*
X172382061Y-100187277D01*
X172362600Y-100119000D01*
X172383142Y-100051040D01*
X172435346Y-100005805D01*
X172613115Y-99922910D01*
X172613120Y-99922907D01*
X172618102Y-99920584D01*
X172622611Y-99917427D01*
X172790106Y-99800146D01*
X172790109Y-99800144D01*
X172794617Y-99796987D01*
X172946987Y-99644617D01*
X173070584Y-99468102D01*
X173072907Y-99463120D01*
X173072910Y-99463115D01*
X173159329Y-99277789D01*
X173159330Y-99277787D01*
X173161652Y-99272807D01*
X173217423Y-99064665D01*
X173236204Y-98850000D01*
X173217423Y-98635335D01*
X173207156Y-98597019D01*
X173163075Y-98432503D01*
X173163074Y-98432501D01*
X173161652Y-98427193D01*
X173159329Y-98422211D01*
X173072910Y-98236885D01*
X173072907Y-98236880D01*
X173070584Y-98231898D01*
X173018500Y-98157514D01*
X172950146Y-98059894D01*
X172950144Y-98059891D01*
X172946987Y-98055383D01*
X172794617Y-97903013D01*
X172790109Y-97899856D01*
X172790106Y-97899854D01*
X172622611Y-97782573D01*
X172622609Y-97782572D01*
X172618102Y-97779416D01*
X172613120Y-97777093D01*
X172613115Y-97777090D01*
X172435346Y-97694195D01*
X172382061Y-97647277D01*
X172362600Y-97579000D01*
X172383142Y-97511040D01*
X172435346Y-97465805D01*
X172613115Y-97382910D01*
X172613120Y-97382907D01*
X172618102Y-97380584D01*
X172637642Y-97366902D01*
X172790106Y-97260146D01*
X172790109Y-97260144D01*
X172794617Y-97256987D01*
X172946987Y-97104617D01*
X172982967Y-97053233D01*
X173067427Y-96932611D01*
X173067428Y-96932609D01*
X173070584Y-96928102D01*
X173072907Y-96923120D01*
X173072910Y-96923115D01*
X173159329Y-96737789D01*
X173159330Y-96737787D01*
X173161652Y-96732807D01*
X173163587Y-96725588D01*
X173215999Y-96529980D01*
X173215999Y-96529978D01*
X173217423Y-96524665D01*
X173236204Y-96310000D01*
X173217423Y-96095335D01*
X173191563Y-95998823D01*
X173163075Y-95892503D01*
X173163074Y-95892501D01*
X173161652Y-95887193D01*
X173157517Y-95878326D01*
X173072910Y-95696885D01*
X173072907Y-95696880D01*
X173070584Y-95691898D01*
X173053920Y-95668099D01*
X172950146Y-95519894D01*
X172950144Y-95519891D01*
X172946987Y-95515383D01*
X172794617Y-95363013D01*
X172790109Y-95359856D01*
X172790106Y-95359854D01*
X172622611Y-95242573D01*
X172622609Y-95242572D01*
X172618102Y-95239416D01*
X172613120Y-95237093D01*
X172613115Y-95237090D01*
X172583316Y-95223195D01*
X172530031Y-95176278D01*
X172510570Y-95108000D01*
X172531112Y-95040040D01*
X172585135Y-94993975D01*
X172636566Y-94983000D01*
X172977885Y-94983000D01*
X172993124Y-94978525D01*
X172994329Y-94977135D01*
X172996000Y-94969452D01*
X172996000Y-94964884D01*
X173504000Y-94964884D01*
X173508475Y-94980123D01*
X173509865Y-94981328D01*
X173517548Y-94982999D01*
X174144669Y-94982999D01*
X174151490Y-94982629D01*
X174202352Y-94977105D01*
X174217604Y-94973479D01*
X174338054Y-94928324D01*
X174353649Y-94919786D01*
X174455724Y-94843285D01*
X174468285Y-94830724D01*
X174544786Y-94728649D01*
X174553325Y-94713052D01*
X174594425Y-94603418D01*
X174637066Y-94546653D01*
X174703628Y-94521953D01*
X174772977Y-94537160D01*
X174807645Y-94565150D01*
X174833219Y-94594674D01*
X174840580Y-94601883D01*
X175004434Y-94737916D01*
X175012881Y-94743831D01*
X175196756Y-94851279D01*
X175206042Y-94855729D01*
X175405001Y-94931703D01*
X175414899Y-94934579D01*
X175518250Y-94955606D01*
X175532299Y-94954410D01*
X175536000Y-94944065D01*
X175536000Y-93897115D01*
X175531525Y-93881876D01*
X175530135Y-93880671D01*
X175522452Y-93879000D01*
X173522115Y-93879000D01*
X173506876Y-93883475D01*
X173505671Y-93884865D01*
X173504000Y-93892548D01*
X173504000Y-94964884D01*
X172996000Y-94964884D01*
X172996000Y-93897115D01*
X172991525Y-93881876D01*
X172990135Y-93880671D01*
X172982452Y-93879000D01*
X171910116Y-93879000D01*
X171894877Y-93883475D01*
X171893672Y-93884865D01*
X171892001Y-93892548D01*
X171892001Y-94519669D01*
X171892371Y-94526490D01*
X171897895Y-94577352D01*
X171901521Y-94592604D01*
X171946676Y-94713054D01*
X171955214Y-94728649D01*
X172031715Y-94830724D01*
X172044278Y-94843287D01*
X172051375Y-94848606D01*
X172093890Y-94905465D01*
X172098914Y-94976284D01*
X172064854Y-95038577D01*
X172002522Y-95072567D01*
X171986796Y-95074951D01*
X171785335Y-95092577D01*
X171780022Y-95094001D01*
X171780020Y-95094001D01*
X171582503Y-95146925D01*
X171582501Y-95146926D01*
X171577193Y-95148348D01*
X171572213Y-95150670D01*
X171572211Y-95150671D01*
X171386885Y-95237090D01*
X171386880Y-95237093D01*
X171381898Y-95239416D01*
X171377391Y-95242572D01*
X171377389Y-95242573D01*
X171209894Y-95359854D01*
X171209891Y-95359856D01*
X171205383Y-95363013D01*
X171196595Y-95371801D01*
X171134283Y-95405827D01*
X171063468Y-95400762D01*
X171006632Y-95358215D01*
X170981821Y-95291695D01*
X170981500Y-95282706D01*
X170981500Y-92957500D01*
X171001502Y-92889379D01*
X171055158Y-92842886D01*
X171107500Y-92831500D01*
X171766000Y-92831500D01*
X171834121Y-92851502D01*
G37*
%TD.AperFunction*%
%TA.AperFunction,Conductor*%
G36*
X182631132Y-98451502D02*
G01*
X182652106Y-98468405D01*
X182691753Y-98508052D01*
X182699334Y-98517539D01*
X182699708Y-98517221D01*
X182705523Y-98524054D01*
X182710315Y-98531648D01*
X182734998Y-98553447D01*
X182750484Y-98567124D01*
X182756171Y-98572470D01*
X182767565Y-98583864D01*
X182775887Y-98590101D01*
X182783725Y-98596482D01*
X182812332Y-98621747D01*
X182812335Y-98621749D01*
X182819061Y-98627689D01*
X182827189Y-98631505D01*
X182829835Y-98633243D01*
X182844325Y-98641950D01*
X182847084Y-98643460D01*
X182854266Y-98648843D01*
X182898422Y-98665396D01*
X182907708Y-98669309D01*
X182950391Y-98689349D01*
X182959264Y-98690731D01*
X182962291Y-98691656D01*
X182978635Y-98695944D01*
X182981717Y-98696622D01*
X182990118Y-98699771D01*
X182999064Y-98700436D01*
X182999065Y-98700436D01*
X183037124Y-98703264D01*
X183047173Y-98704418D01*
X183060544Y-98706500D01*
X183075986Y-98706500D01*
X183085324Y-98706846D01*
X183134804Y-98710523D01*
X183143578Y-98708650D01*
X183152059Y-98708072D01*
X183166950Y-98706500D01*
X185229157Y-98706500D01*
X185241221Y-98707848D01*
X185241260Y-98707358D01*
X185250206Y-98708078D01*
X185258962Y-98710059D01*
X185312432Y-98706742D01*
X185320233Y-98706500D01*
X185336366Y-98706500D01*
X185340807Y-98705864D01*
X185340809Y-98705864D01*
X185346677Y-98705024D01*
X185356726Y-98703995D01*
X185394806Y-98701632D01*
X185403768Y-98701076D01*
X185412215Y-98698026D01*
X185415317Y-98697384D01*
X185431702Y-98693299D01*
X185434735Y-98692412D01*
X185443619Y-98691140D01*
X185451786Y-98687426D01*
X185451788Y-98687426D01*
X185486533Y-98671628D01*
X185495902Y-98667815D01*
X185531792Y-98654859D01*
X185531793Y-98654858D01*
X185540232Y-98651812D01*
X185547475Y-98646521D01*
X185550232Y-98645055D01*
X185564882Y-98636494D01*
X185567524Y-98634804D01*
X185575693Y-98631090D01*
X185582493Y-98625231D01*
X185582496Y-98625229D01*
X185611407Y-98600318D01*
X185619312Y-98594040D01*
X185630250Y-98586049D01*
X185641169Y-98575130D01*
X185648003Y-98568784D01*
X185665803Y-98553446D01*
X185730462Y-98524133D01*
X185800708Y-98534430D01*
X185839277Y-98568037D01*
X185840871Y-98566551D01*
X185864892Y-98592327D01*
X185878292Y-98596000D01*
X187328000Y-98596000D01*
X187396121Y-98616002D01*
X187442614Y-98669658D01*
X187454000Y-98722000D01*
X187454000Y-98978000D01*
X187433998Y-99046121D01*
X187380342Y-99092614D01*
X187328000Y-99104000D01*
X185883225Y-99104000D01*
X185869694Y-99107973D01*
X185868257Y-99117966D01*
X185898565Y-99252446D01*
X185901645Y-99262275D01*
X185981770Y-99459603D01*
X185986413Y-99468794D01*
X186097694Y-99650388D01*
X186103777Y-99658699D01*
X186243213Y-99819667D01*
X186250580Y-99826883D01*
X186414434Y-99962916D01*
X186422881Y-99968831D01*
X186606753Y-100076277D01*
X186611283Y-100078448D01*
X186664072Y-100125922D01*
X186682815Y-100194400D01*
X186661560Y-100262140D01*
X186610085Y-100306272D01*
X186586889Y-100317088D01*
X186586886Y-100317090D01*
X186581898Y-100319416D01*
X186577391Y-100322572D01*
X186577389Y-100322573D01*
X186409894Y-100439854D01*
X186409891Y-100439856D01*
X186405383Y-100443013D01*
X186253013Y-100595383D01*
X186249856Y-100599891D01*
X186249854Y-100599894D01*
X186194490Y-100678962D01*
X186129416Y-100771898D01*
X186127093Y-100776880D01*
X186127090Y-100776885D01*
X186058224Y-100924568D01*
X186038348Y-100967193D01*
X186036927Y-100972498D01*
X186036924Y-100972505D01*
X186021363Y-101030583D01*
X185984412Y-101091206D01*
X185920552Y-101122228D01*
X185851438Y-101114382D01*
X185784431Y-101086627D01*
X185776802Y-101083467D01*
X185768618Y-101082390D01*
X185768616Y-101082389D01*
X185667203Y-101069038D01*
X185667202Y-101069038D01*
X185663116Y-101068500D01*
X185144202Y-101068500D01*
X185076081Y-101048498D01*
X185029588Y-100994842D01*
X185019484Y-100924568D01*
X185026414Y-100897757D01*
X185034235Y-100877168D01*
X185034235Y-100877167D01*
X185036737Y-100870581D01*
X185051240Y-100767389D01*
X185060587Y-100700883D01*
X185060588Y-100700875D01*
X185061138Y-100696959D01*
X185061445Y-100675000D01*
X185041901Y-100500764D01*
X185039372Y-100493500D01*
X184986557Y-100341835D01*
X184986556Y-100341833D01*
X184984242Y-100335188D01*
X184967984Y-100309170D01*
X184895064Y-100192473D01*
X184895063Y-100192471D01*
X184891332Y-100186501D01*
X184885125Y-100180250D01*
X184805662Y-100100232D01*
X184767789Y-100062094D01*
X184761846Y-100058322D01*
X184761843Y-100058320D01*
X184662982Y-99995581D01*
X184619755Y-99968148D01*
X184554203Y-99944806D01*
X184461220Y-99911696D01*
X184461215Y-99911695D01*
X184454585Y-99909334D01*
X184447597Y-99908501D01*
X184447594Y-99908500D01*
X184327307Y-99894157D01*
X184280490Y-99888574D01*
X184273487Y-99889310D01*
X184273486Y-99889310D01*
X184113122Y-99906165D01*
X184113120Y-99906166D01*
X184106122Y-99906901D01*
X183940148Y-99963403D01*
X183810005Y-100043468D01*
X183741507Y-100062126D01*
X183724597Y-100060649D01*
X183716962Y-100059460D01*
X183696385Y-100054062D01*
X183693292Y-100053382D01*
X183684882Y-100050229D01*
X183637875Y-100046736D01*
X183627827Y-100045582D01*
X183614456Y-100043500D01*
X183599014Y-100043500D01*
X183589676Y-100043154D01*
X183573178Y-100041928D01*
X183540196Y-100039477D01*
X183531422Y-100041350D01*
X183522941Y-100041928D01*
X183508050Y-100043500D01*
X182024949Y-100043500D01*
X181956828Y-100023498D01*
X181910335Y-99969842D01*
X181900175Y-99899964D01*
X181910587Y-99825883D01*
X181910588Y-99825875D01*
X181911138Y-99821959D01*
X181911445Y-99800000D01*
X181891901Y-99625764D01*
X181834242Y-99460188D01*
X181830511Y-99454217D01*
X181745065Y-99317474D01*
X181745062Y-99317470D01*
X181741332Y-99311501D01*
X181668095Y-99237752D01*
X181634287Y-99175321D01*
X181631500Y-99148967D01*
X181631500Y-98636989D01*
X181651502Y-98568868D01*
X181668405Y-98547894D01*
X181747894Y-98468405D01*
X181810206Y-98434379D01*
X181836989Y-98431500D01*
X182563011Y-98431500D01*
X182631132Y-98451502D01*
G37*
%TD.AperFunction*%
%TD*%
M02*
