M48
; DRILL file {KiCad 6.0.11-2627ca5db0~126~ubuntu22.04.1} date 2023-09-30T14:12:33 CEST
; FORMAT={-:-/ absolute / inch / decimal}
; #@! TF.CreationDate,2023-09-30T14:12:33+02:00
; #@! TF.GenerationSoftware,Kicad,Pcbnew,6.0.11-2627ca5db0~126~ubuntu22.04.1
; #@! TF.FileFunction,Plated,1,2,PTH
FMAT,2
INCH
; #@! TA.AperFunction,Plated,PTH,ViaDrill
T1C0.0157
; #@! TA.AperFunction,Plated,PTH,ComponentDrill
T2C0.0394
%
G90
G05
T1
X6.878Y-3.8189
X6.8858Y-4.2756
X6.9006Y-4.8179
X6.9222Y-3.8957
X6.9729Y-4.3174
X6.9862Y-4.1654
X6.9862Y-4.7185
X7.0128Y-3.9793
X7.0236Y-4.1447
X7.0246Y-4.2795
X7.0453Y-4.6043
X7.062Y-4.127
X7.0758Y-3.7608
X7.1014Y-4.5364
X7.1063Y-4.2953
X7.1309Y-3.9291
X7.1457Y-4.2972
X7.1673Y-4.4685
X7.1703Y-3.8839
X7.185Y-4.6457
X7.2008Y-4.7953
X7.2057Y-4.8829
X7.2264Y-4.7638
X7.2352Y-3.8376
X7.2549Y-3.9636
T2
X6.7717Y-3.7917
X6.7717Y-3.8917
X6.7717Y-3.9917
X6.7717Y-4.0917
X6.7717Y-4.1917
X6.7717Y-4.2917
X6.7717Y-4.3917
X6.7717Y-4.4917
X6.7717Y-4.5917
X6.7717Y-4.6917
X6.7717Y-4.7917
X6.7717Y-4.8917
X6.8209Y-3.686
X6.9209Y-3.686
X7.0209Y-3.686
X7.0661Y-4.0246
X7.1209Y-3.686
X7.1661Y-4.0246
X7.2209Y-3.686
X7.2736Y-4.1362
X7.2736Y-4.2362
X7.2756Y-4.5526
X7.2756Y-4.6526
X7.3209Y-3.686
X7.3701Y-3.7917
X7.3701Y-3.8917
X7.3701Y-3.9917
X7.3701Y-4.0917
X7.3701Y-4.1917
X7.3701Y-4.2917
X7.3701Y-4.3917
X7.3701Y-4.4917
X7.3701Y-4.5917
X7.3701Y-4.6917
X7.3701Y-4.7917
X7.3701Y-4.8917
T0
M30
