%TF.GenerationSoftware,KiCad,Pcbnew,6.0.11-2627ca5db0~126~ubuntu22.04.1*%
%TF.CreationDate,2023-09-30T14:12:33+02:00*%
%TF.ProjectId,atmega328pb-nano,61746d65-6761-4333-9238-70622d6e616e,rev?*%
%TF.SameCoordinates,Original*%
%TF.FileFunction,Soldermask,Top*%
%TF.FilePolarity,Negative*%
%FSLAX46Y46*%
G04 Gerber Fmt 4.6, Leading zero omitted, Abs format (unit mm)*
G04 Created by KiCad (PCBNEW 6.0.11-2627ca5db0~126~ubuntu22.04.1) date 2023-09-30 14:12:33*
%MOMM*%
%LPD*%
G01*
G04 APERTURE LIST*
G04 Aperture macros list*
%AMRoundRect*
0 Rectangle with rounded corners*
0 $1 Rounding radius*
0 $2 $3 $4 $5 $6 $7 $8 $9 X,Y pos of 4 corners*
0 Add a 4 corners polygon primitive as box body*
4,1,4,$2,$3,$4,$5,$6,$7,$8,$9,$2,$3,0*
0 Add four circle primitives for the rounded corners*
1,1,$1+$1,$2,$3*
1,1,$1+$1,$4,$5*
1,1,$1+$1,$6,$7*
1,1,$1+$1,$8,$9*
0 Add four rect primitives between the rounded corners*
20,1,$1+$1,$2,$3,$4,$5,0*
20,1,$1+$1,$4,$5,$6,$7,0*
20,1,$1+$1,$6,$7,$8,$9,0*
20,1,$1+$1,$8,$9,$2,$3,0*%
%AMRotRect*
0 Rectangle, with rotation*
0 The origin of the aperture is its center*
0 $1 length*
0 $2 width*
0 $3 Rotation angle, in degrees counterclockwise*
0 Add horizontal line*
21,1,$1,$2,0,0,$3*%
G04 Aperture macros list end*
%ADD10R,1.700000X1.700000*%
%ADD11O,1.700000X1.700000*%
%ADD12RoundRect,0.200000X-0.200000X-0.275000X0.200000X-0.275000X0.200000X0.275000X-0.200000X0.275000X0*%
%ADD13RoundRect,0.200000X0.275000X-0.200000X0.275000X0.200000X-0.275000X0.200000X-0.275000X-0.200000X0*%
%ADD14RoundRect,0.225000X0.250000X-0.225000X0.250000X0.225000X-0.250000X0.225000X-0.250000X-0.225000X0*%
%ADD15RoundRect,0.218750X0.218750X0.256250X-0.218750X0.256250X-0.218750X-0.256250X0.218750X-0.256250X0*%
%ADD16RoundRect,0.250000X0.425000X-0.450000X0.425000X0.450000X-0.425000X0.450000X-0.425000X-0.450000X0*%
%ADD17R,1.900000X0.400000*%
%ADD18RoundRect,0.225000X-0.225000X-0.250000X0.225000X-0.250000X0.225000X0.250000X-0.225000X0.250000X0*%
%ADD19RoundRect,0.225000X-0.250000X0.225000X-0.250000X-0.225000X0.250000X-0.225000X0.250000X0.225000X0*%
%ADD20RoundRect,0.150000X0.512500X0.150000X-0.512500X0.150000X-0.512500X-0.150000X0.512500X-0.150000X0*%
%ADD21RoundRect,0.218750X0.256250X-0.218750X0.256250X0.218750X-0.256250X0.218750X-0.256250X-0.218750X0*%
%ADD22RotRect,1.600000X0.550000X315.000000*%
%ADD23RotRect,1.600000X0.550000X45.000000*%
%ADD24R,1.250000X1.000000*%
G04 APERTURE END LIST*
D10*
%TO.C,J2*%
X173250000Y-93625000D03*
D11*
X175790000Y-93625000D03*
X178330000Y-93625000D03*
X180870000Y-93625000D03*
X183410000Y-93625000D03*
X185950000Y-93625000D03*
%TD*%
D12*
%TO.C,R11*%
X176225000Y-120375000D03*
X177875000Y-120375000D03*
%TD*%
D13*
%TO.C,R20*%
X174075000Y-101050000D03*
X174075000Y-99400000D03*
%TD*%
D11*
%TO.C,J12*%
X184750000Y-107600000D03*
X184750000Y-105060000D03*
%TD*%
D14*
%TO.C,C12*%
X183200000Y-118575000D03*
X183200000Y-117025000D03*
%TD*%
D15*
%TO.C,D20*%
X175937500Y-102525000D03*
X174362500Y-102525000D03*
%TD*%
D16*
%TO.C,C21*%
X175875000Y-100700000D03*
X175875000Y-98000000D03*
%TD*%
D13*
%TO.C,R10*%
X184800000Y-121925000D03*
X184800000Y-120275000D03*
%TD*%
D11*
%TO.C,J14*%
X182020000Y-102225000D03*
X179480000Y-102225000D03*
%TD*%
D17*
%TO.C,Y1*%
X174725000Y-106950000D03*
X174725000Y-105750000D03*
X174725000Y-104550000D03*
%TD*%
D18*
%TO.C,C10*%
X176650000Y-104050000D03*
X178200000Y-104050000D03*
%TD*%
D19*
%TO.C,C13*%
X184850000Y-96175000D03*
X184850000Y-97725000D03*
%TD*%
D11*
%TO.C,J13*%
X184800000Y-118175000D03*
X184800000Y-115635000D03*
%TD*%
D20*
%TO.C,U20*%
X180162500Y-99950000D03*
X180162500Y-99000000D03*
X180162500Y-98050000D03*
X177887500Y-98050000D03*
X177887500Y-99950000D03*
%TD*%
D21*
%TO.C,D10*%
X184800000Y-124887500D03*
X184800000Y-123312500D03*
%TD*%
D10*
%TO.C,J10*%
X172000000Y-124250000D03*
D11*
X172000000Y-121710000D03*
X172000000Y-119170000D03*
X172000000Y-116630000D03*
X172000000Y-114090000D03*
X172000000Y-111550000D03*
X172000000Y-109010000D03*
X172000000Y-106470000D03*
X172000000Y-103930000D03*
X172000000Y-101390000D03*
X172000000Y-98850000D03*
X172000000Y-96310000D03*
%TD*%
D22*
%TO.C,U1*%
X178574695Y-106614897D03*
X178009010Y-107180583D03*
X177443324Y-107746268D03*
X176877639Y-108311953D03*
X176311953Y-108877639D03*
X175746268Y-109443324D03*
X175180583Y-110009010D03*
X174614897Y-110574695D03*
D23*
X174614897Y-112625305D03*
X175180583Y-113190990D03*
X175746268Y-113756676D03*
X176311953Y-114322361D03*
X176877639Y-114888047D03*
X177443324Y-115453732D03*
X178009010Y-116019417D03*
X178574695Y-116585103D03*
D22*
X180625305Y-116585103D03*
X181190990Y-116019417D03*
X181756676Y-115453732D03*
X182322361Y-114888047D03*
X182888047Y-114322361D03*
X183453732Y-113756676D03*
X184019417Y-113190990D03*
X184585103Y-112625305D03*
D23*
X184585103Y-110574695D03*
X184019417Y-110009010D03*
X183453732Y-109443324D03*
X182888047Y-108877639D03*
X182322361Y-108311953D03*
X181756676Y-107746268D03*
X181190990Y-107180583D03*
X180625305Y-106614897D03*
%TD*%
D24*
%TO.C,SW1*%
X183025000Y-123300000D03*
X175275000Y-123300000D03*
%TD*%
D10*
%TO.C,J11*%
X187200000Y-124250000D03*
D11*
X187200000Y-121710000D03*
X187200000Y-119170000D03*
X187200000Y-116630000D03*
X187200000Y-114090000D03*
X187200000Y-111550000D03*
X187200000Y-109010000D03*
X187200000Y-106470000D03*
X187200000Y-103930000D03*
X187200000Y-101390000D03*
X187200000Y-98850000D03*
X187200000Y-96310000D03*
%TD*%
D16*
%TO.C,C20*%
X182150000Y-100000000D03*
X182150000Y-97300000D03*
%TD*%
M02*
