%TF.GenerationSoftware,KiCad,Pcbnew,6.0.11-2627ca5db0~126~ubuntu22.04.1*%
%TF.CreationDate,2023-09-30T14:12:33+02:00*%
%TF.ProjectId,atmega328pb-nano,61746d65-6761-4333-9238-70622d6e616e,rev?*%
%TF.SameCoordinates,Original*%
%TF.FileFunction,Copper,L1,Top*%
%TF.FilePolarity,Positive*%
%FSLAX46Y46*%
G04 Gerber Fmt 4.6, Leading zero omitted, Abs format (unit mm)*
G04 Created by KiCad (PCBNEW 6.0.11-2627ca5db0~126~ubuntu22.04.1) date 2023-09-30 14:12:33*
%MOMM*%
%LPD*%
G01*
G04 APERTURE LIST*
G04 Aperture macros list*
%AMRoundRect*
0 Rectangle with rounded corners*
0 $1 Rounding radius*
0 $2 $3 $4 $5 $6 $7 $8 $9 X,Y pos of 4 corners*
0 Add a 4 corners polygon primitive as box body*
4,1,4,$2,$3,$4,$5,$6,$7,$8,$9,$2,$3,0*
0 Add four circle primitives for the rounded corners*
1,1,$1+$1,$2,$3*
1,1,$1+$1,$4,$5*
1,1,$1+$1,$6,$7*
1,1,$1+$1,$8,$9*
0 Add four rect primitives between the rounded corners*
20,1,$1+$1,$2,$3,$4,$5,0*
20,1,$1+$1,$4,$5,$6,$7,0*
20,1,$1+$1,$6,$7,$8,$9,0*
20,1,$1+$1,$8,$9,$2,$3,0*%
%AMRotRect*
0 Rectangle, with rotation*
0 The origin of the aperture is its center*
0 $1 length*
0 $2 width*
0 $3 Rotation angle, in degrees counterclockwise*
0 Add horizontal line*
21,1,$1,$2,0,0,$3*%
G04 Aperture macros list end*
%TA.AperFunction,ComponentPad*%
%ADD10R,1.700000X1.700000*%
%TD*%
%TA.AperFunction,ComponentPad*%
%ADD11O,1.700000X1.700000*%
%TD*%
%TA.AperFunction,SMDPad,CuDef*%
%ADD12RoundRect,0.200000X-0.200000X-0.275000X0.200000X-0.275000X0.200000X0.275000X-0.200000X0.275000X0*%
%TD*%
%TA.AperFunction,SMDPad,CuDef*%
%ADD13RoundRect,0.200000X0.275000X-0.200000X0.275000X0.200000X-0.275000X0.200000X-0.275000X-0.200000X0*%
%TD*%
%TA.AperFunction,SMDPad,CuDef*%
%ADD14RoundRect,0.225000X0.250000X-0.225000X0.250000X0.225000X-0.250000X0.225000X-0.250000X-0.225000X0*%
%TD*%
%TA.AperFunction,SMDPad,CuDef*%
%ADD15RoundRect,0.218750X0.218750X0.256250X-0.218750X0.256250X-0.218750X-0.256250X0.218750X-0.256250X0*%
%TD*%
%TA.AperFunction,SMDPad,CuDef*%
%ADD16RoundRect,0.250000X0.425000X-0.450000X0.425000X0.450000X-0.425000X0.450000X-0.425000X-0.450000X0*%
%TD*%
%TA.AperFunction,SMDPad,CuDef*%
%ADD17R,1.900000X0.400000*%
%TD*%
%TA.AperFunction,SMDPad,CuDef*%
%ADD18RoundRect,0.225000X-0.225000X-0.250000X0.225000X-0.250000X0.225000X0.250000X-0.225000X0.250000X0*%
%TD*%
%TA.AperFunction,SMDPad,CuDef*%
%ADD19RoundRect,0.225000X-0.250000X0.225000X-0.250000X-0.225000X0.250000X-0.225000X0.250000X0.225000X0*%
%TD*%
%TA.AperFunction,SMDPad,CuDef*%
%ADD20RoundRect,0.150000X0.512500X0.150000X-0.512500X0.150000X-0.512500X-0.150000X0.512500X-0.150000X0*%
%TD*%
%TA.AperFunction,SMDPad,CuDef*%
%ADD21RoundRect,0.218750X0.256250X-0.218750X0.256250X0.218750X-0.256250X0.218750X-0.256250X-0.218750X0*%
%TD*%
%TA.AperFunction,SMDPad,CuDef*%
%ADD22RotRect,1.600000X0.550000X315.000000*%
%TD*%
%TA.AperFunction,SMDPad,CuDef*%
%ADD23RotRect,1.600000X0.550000X45.000000*%
%TD*%
%TA.AperFunction,SMDPad,CuDef*%
%ADD24R,1.250000X1.000000*%
%TD*%
%TA.AperFunction,ViaPad*%
%ADD25C,0.800000*%
%TD*%
%TA.AperFunction,Conductor*%
%ADD26C,0.250000*%
%TD*%
%TA.AperFunction,Conductor*%
%ADD27C,0.500000*%
%TD*%
G04 APERTURE END LIST*
D10*
%TO.P,J2,1,Pin_1*%
%TO.N,GNDD*%
X173250000Y-93625000D03*
D11*
%TO.P,J2,2,Pin_2*%
X175790000Y-93625000D03*
%TO.P,J2,3,Pin_3*%
%TO.N,+5VD*%
X178330000Y-93625000D03*
%TO.P,J2,4,Pin_4*%
%TO.N,RXD*%
X180870000Y-93625000D03*
%TO.P,J2,5,Pin_5*%
%TO.N,TXD*%
X183410000Y-93625000D03*
%TO.P,J2,6,Pin_6*%
%TO.N,DTR*%
X185950000Y-93625000D03*
%TD*%
D12*
%TO.P,R11,1*%
%TO.N,~{RESET}*%
X176225000Y-120375000D03*
%TO.P,R11,2*%
%TO.N,+5VD*%
X177875000Y-120375000D03*
%TD*%
D13*
%TO.P,R20,1*%
%TO.N,Net-(D20-Pad2)*%
X174075000Y-101050000D03*
%TO.P,R20,2*%
%TO.N,+5VD*%
X174075000Y-99400000D03*
%TD*%
D11*
%TO.P,J12,1,Pin_1*%
%TO.N,A4*%
X184750000Y-107600000D03*
%TO.P,J12,2,Pin_2*%
%TO.N,A5*%
X184750000Y-105060000D03*
%TD*%
D14*
%TO.P,C12,1*%
%TO.N,GNDD*%
X183200000Y-118575000D03*
%TO.P,C12,2*%
%TO.N,Net-(C12-Pad2)*%
X183200000Y-117025000D03*
%TD*%
D15*
%TO.P,D20,1,K*%
%TO.N,GNDD*%
X175937500Y-102525000D03*
%TO.P,D20,2,A*%
%TO.N,Net-(D20-Pad2)*%
X174362500Y-102525000D03*
%TD*%
D16*
%TO.P,C21,1*%
%TO.N,+5VD*%
X175875000Y-100700000D03*
%TO.P,C21,2*%
%TO.N,GNDD*%
X175875000Y-98000000D03*
%TD*%
D13*
%TO.P,R10,1*%
%TO.N,Net-(D10-Pad2)*%
X184800000Y-121925000D03*
%TO.P,R10,2*%
%TO.N,SCK*%
X184800000Y-120275000D03*
%TD*%
D11*
%TO.P,J14,1,Pin_1*%
%TO.N,SDA1*%
X182020000Y-102225000D03*
%TO.P,J14,2,Pin_2*%
%TO.N,SCL1*%
X179480000Y-102225000D03*
%TD*%
D17*
%TO.P,Y1,1,1*%
%TO.N,Net-(U1-Pad7)*%
X174725000Y-106950000D03*
%TO.P,Y1,2,2*%
%TO.N,GNDD*%
X174725000Y-105750000D03*
%TO.P,Y1,3,3*%
%TO.N,Net-(U1-Pad8)*%
X174725000Y-104550000D03*
%TD*%
D18*
%TO.P,C10,1*%
%TO.N,GNDD*%
X176650000Y-104050000D03*
%TO.P,C10,2*%
%TO.N,+5VD*%
X178200000Y-104050000D03*
%TD*%
D19*
%TO.P,C13,1*%
%TO.N,DTR*%
X184850000Y-96175000D03*
%TO.P,C13,2*%
%TO.N,~{RESET}*%
X184850000Y-97725000D03*
%TD*%
D11*
%TO.P,J13,1,Pin_1*%
%TO.N,A6*%
X184800000Y-118175000D03*
%TO.P,J13,2,Pin_2*%
%TO.N,A7*%
X184800000Y-115635000D03*
%TD*%
D20*
%TO.P,U20,1,IN*%
%TO.N,RAW*%
X180162500Y-99950000D03*
%TO.P,U20,2,GND*%
%TO.N,GNDD*%
X180162500Y-99000000D03*
%TO.P,U20,3,EN*%
%TO.N,RAW*%
X180162500Y-98050000D03*
%TO.P,U20,4,BP*%
%TO.N,unconnected-(U20-Pad4)*%
X177887500Y-98050000D03*
%TO.P,U20,5,OUT*%
%TO.N,+5VD*%
X177887500Y-99950000D03*
%TD*%
D21*
%TO.P,D10,1,K*%
%TO.N,GNDD*%
X184800000Y-124887500D03*
%TO.P,D10,2,A*%
%TO.N,Net-(D10-Pad2)*%
X184800000Y-123312500D03*
%TD*%
D10*
%TO.P,J10,1,Pin_1*%
%TO.N,D9*%
X172000000Y-124250000D03*
D11*
%TO.P,J10,2,Pin_2*%
%TO.N,D8*%
X172000000Y-121710000D03*
%TO.P,J10,3,Pin_3*%
%TO.N,D7*%
X172000000Y-119170000D03*
%TO.P,J10,4,Pin_4*%
%TO.N,D6*%
X172000000Y-116630000D03*
%TO.P,J10,5,Pin_5*%
%TO.N,D5*%
X172000000Y-114090000D03*
%TO.P,J10,6,Pin_6*%
%TO.N,D4*%
X172000000Y-111550000D03*
%TO.P,J10,7,Pin_7*%
%TO.N,D3*%
X172000000Y-109010000D03*
%TO.P,J10,8,Pin_8*%
%TO.N,D2*%
X172000000Y-106470000D03*
%TO.P,J10,9,Pin_9*%
%TO.N,GNDD*%
X172000000Y-103930000D03*
%TO.P,J10,10,Pin_10*%
%TO.N,~{RESET}*%
X172000000Y-101390000D03*
%TO.P,J10,11,Pin_11*%
%TO.N,RXD*%
X172000000Y-98850000D03*
%TO.P,J10,12,Pin_12*%
%TO.N,TXD*%
X172000000Y-96310000D03*
%TD*%
D22*
%TO.P,U1,1,(OC2B/INT1/PTCXY)PD3*%
%TO.N,D3*%
X178574695Y-106614897D03*
%TO.P,U1,2,(XCK0/T0/PTCXY)PD4*%
%TO.N,D4*%
X178009010Y-107180583D03*
%TO.P,U1,3,PE0(PTCXY/SDA1/ICP4/ACO)*%
%TO.N,SDA1*%
X177443324Y-107746268D03*
%TO.P,U1,4,VCC*%
%TO.N,+5VD*%
X176877639Y-108311953D03*
%TO.P,U1,5,GND*%
%TO.N,GNDD*%
X176311953Y-108877639D03*
%TO.P,U1,6,PE1(PTCXY/SCL1/T4)*%
%TO.N,SCL1*%
X175746268Y-109443324D03*
%TO.P,U1,7,(XTAL1/TOSC1)PB6*%
%TO.N,Net-(U1-Pad7)*%
X175180583Y-110009010D03*
%TO.P,U1,8,(XTAL2/TOSC2)PB7*%
%TO.N,Net-(U1-Pad8)*%
X174614897Y-110574695D03*
D23*
%TO.P,U1,9,(OC0B/T1/PTCXY)PD5*%
%TO.N,D5*%
X174614897Y-112625305D03*
%TO.P,U1,10,(OC0A/AIN0/PTCXY)PD6*%
%TO.N,D6*%
X175180583Y-113190990D03*
%TO.P,U1,11,(AIN1/PTCXY)PD7*%
%TO.N,D7*%
X175746268Y-113756676D03*
%TO.P,U1,12,(CLKO/ICP1/PTCXY)PB0*%
%TO.N,D8*%
X176311953Y-114322361D03*
%TO.P,U1,13,(OC1A/PTCXY)PB1*%
%TO.N,D9*%
X176877639Y-114888047D03*
%TO.P,U1,14,(OC1B/~{SS0}/PTCXY)PB2*%
%TO.N,D10*%
X177443324Y-115453732D03*
%TO.P,U1,15,(MOSI0/TXD1/OC2A/PTCXY)PB3*%
%TO.N,MOSI*%
X178009010Y-116019417D03*
%TO.P,U1,16,(MISO0/RXD1/PTCXY)PB4*%
%TO.N,MISO*%
X178574695Y-116585103D03*
D22*
%TO.P,U1,17,(XCK0/SCK0/PTCXY)PB5*%
%TO.N,SCK*%
X180625305Y-116585103D03*
%TO.P,U1,18,AVCC*%
%TO.N,+5VD*%
X181190990Y-116019417D03*
%TO.P,U1,19,PE2(PTCY/ADC6/ICP3/~{SS1})*%
%TO.N,A6*%
X181756676Y-115453732D03*
%TO.P,U1,20,AREF*%
%TO.N,Net-(C12-Pad2)*%
X182322361Y-114888047D03*
%TO.P,U1,21,GND*%
%TO.N,GNDD*%
X182888047Y-114322361D03*
%TO.P,U1,22,PE3(PTCY/ADC7/T3/MOSI1)*%
%TO.N,A7*%
X183453732Y-113756676D03*
%TO.P,U1,23,(MISO1/ADC0/PTCY)PC0*%
%TO.N,A0*%
X184019417Y-113190990D03*
%TO.P,U1,24,(SCK1/ADC1/PTCY)PC1*%
%TO.N,A1*%
X184585103Y-112625305D03*
D23*
%TO.P,U1,25,(ADC2/PTCY)PC2*%
%TO.N,A2*%
X184585103Y-110574695D03*
%TO.P,U1,26,(ADC3/PTCY)PC3*%
%TO.N,A3*%
X184019417Y-110009010D03*
%TO.P,U1,27,(SDA0/ADC4/PTCY)PC4*%
%TO.N,A4*%
X183453732Y-109443324D03*
%TO.P,U1,28,(SCL0/ADC5/PTCY)PC5*%
%TO.N,A5*%
X182888047Y-108877639D03*
%TO.P,U1,29,(~{RESET})PC6*%
%TO.N,~{RESET}*%
X182322361Y-108311953D03*
%TO.P,U1,30,(RXD0/OC3A/PTCXY)PD0*%
%TO.N,RXD*%
X181756676Y-107746268D03*
%TO.P,U1,31,(TXD0/OC4A/PTCXY)PD1*%
%TO.N,TXD*%
X181190990Y-107180583D03*
%TO.P,U1,32,(OC3B/OC4B/INT0/PTCXY)PD2*%
%TO.N,D2*%
X180625305Y-106614897D03*
%TD*%
D24*
%TO.P,SW1,1,A*%
%TO.N,GNDD*%
X183025000Y-123300000D03*
%TO.P,SW1,2,B*%
%TO.N,~{RESET}*%
X175275000Y-123300000D03*
%TD*%
D10*
%TO.P,J11,1,Pin_1*%
%TO.N,D10*%
X187200000Y-124250000D03*
D11*
%TO.P,J11,2,Pin_2*%
%TO.N,MOSI*%
X187200000Y-121710000D03*
%TO.P,J11,3,Pin_3*%
%TO.N,MISO*%
X187200000Y-119170000D03*
%TO.P,J11,4,Pin_4*%
%TO.N,SCK*%
X187200000Y-116630000D03*
%TO.P,J11,5,Pin_5*%
%TO.N,A0*%
X187200000Y-114090000D03*
%TO.P,J11,6,Pin_6*%
%TO.N,A1*%
X187200000Y-111550000D03*
%TO.P,J11,7,Pin_7*%
%TO.N,A2*%
X187200000Y-109010000D03*
%TO.P,J11,8,Pin_8*%
%TO.N,A3*%
X187200000Y-106470000D03*
%TO.P,J11,9,Pin_9*%
%TO.N,+5VD*%
X187200000Y-103930000D03*
%TO.P,J11,10,Pin_10*%
%TO.N,~{RESET}*%
X187200000Y-101390000D03*
%TO.P,J11,11,Pin_11*%
%TO.N,GNDD*%
X187200000Y-98850000D03*
%TO.P,J11,12,Pin_12*%
%TO.N,RAW*%
X187200000Y-96310000D03*
%TD*%
D16*
%TO.P,C20,1*%
%TO.N,RAW*%
X182150000Y-100000000D03*
%TO.P,C20,2*%
%TO.N,GNDD*%
X182150000Y-97300000D03*
%TD*%
D25*
%TO.N,GNDD*%
X182125000Y-98650000D03*
X175825000Y-98950000D03*
X177112500Y-109662500D03*
X182500000Y-118000000D03*
X182050000Y-113500000D03*
X183025000Y-124025000D03*
%TO.N,~{RESET}*%
X181500000Y-109150000D03*
X175275000Y-122375000D03*
%TO.N,RAW*%
X181125000Y-99800000D03*
%TO.N,+5VD*%
X177450000Y-119850000D03*
X178125000Y-101075000D03*
X174700000Y-97000000D03*
X180375000Y-115225000D03*
%TO.N,MISO*%
X178950000Y-116950000D03*
%TO.N,MOSI*%
X183550000Y-121000000D03*
%TO.N,TXD*%
X183775000Y-97475000D03*
%TO.N,RXD*%
X184275000Y-100675000D03*
X179725000Y-95525000D03*
%TO.N,D4*%
X180500000Y-109100000D03*
%TO.N,D3*%
X177450000Y-105800000D03*
%TO.N,D2*%
X178400000Y-105275000D03*
%TO.N,D10*%
X182900000Y-121800000D03*
%TO.N,SDA1*%
X178425000Y-108700000D03*
%TO.N,SCL1*%
X179375000Y-104825000D03*
X174900000Y-108600000D03*
%TD*%
D26*
%TO.N,GNDD*%
X182888047Y-114322361D02*
X182872361Y-114322361D01*
D27*
X175675000Y-103700000D02*
X176025000Y-104050000D01*
X176850000Y-97025000D02*
X180900000Y-97025000D01*
X173550000Y-103700000D02*
X175675000Y-103700000D01*
D26*
X182500000Y-118000000D02*
X182975000Y-118475000D01*
X182872361Y-114322361D02*
X182050000Y-113500000D01*
D27*
X180900000Y-97025000D02*
X181175000Y-97300000D01*
D26*
X176650000Y-104925000D02*
X175825000Y-105750000D01*
X175962500Y-102550000D02*
X176650000Y-103237500D01*
X180162500Y-99000000D02*
X181000000Y-99000000D01*
X176327639Y-108877639D02*
X176311953Y-108877639D01*
X182125000Y-97325000D02*
X182150000Y-97300000D01*
X177112500Y-109662500D02*
X176327639Y-108877639D01*
D27*
X176025000Y-104050000D02*
X176650000Y-104050000D01*
D26*
X181350000Y-98650000D02*
X182125000Y-98650000D01*
X175825000Y-105750000D02*
X174600000Y-105750000D01*
X183025000Y-124025000D02*
X183025000Y-123300000D01*
X182975000Y-118475000D02*
X183200000Y-118475000D01*
X182125000Y-98650000D02*
X182125000Y-97325000D01*
D27*
X175875000Y-98000000D02*
X176850000Y-97025000D01*
X181175000Y-97300000D02*
X182150000Y-97300000D01*
D26*
X181000000Y-99000000D02*
X181350000Y-98650000D01*
D27*
X173320000Y-103930000D02*
X173550000Y-103700000D01*
X172000000Y-103930000D02*
X173320000Y-103930000D01*
D26*
X176650000Y-103237500D02*
X176650000Y-104925000D01*
%TO.N,Net-(C12-Pad2)*%
X183200000Y-115750000D02*
X183200000Y-116925000D01*
X182338047Y-114888047D02*
X183200000Y-115750000D01*
X182322361Y-114888047D02*
X182338047Y-114888047D01*
%TO.N,DTR*%
X184850000Y-96150000D02*
X185950000Y-95050000D01*
X185950000Y-95050000D02*
X185950000Y-93625000D01*
X184850000Y-96175000D02*
X184850000Y-96150000D01*
%TO.N,~{RESET}*%
X186000000Y-100190000D02*
X187200000Y-101390000D01*
X175275000Y-122375000D02*
X175275000Y-120575000D01*
X180650000Y-96275000D02*
X180850000Y-96075000D01*
X180850000Y-96075000D02*
X183475000Y-96075000D01*
X173250000Y-100175000D02*
X173250000Y-98900000D01*
X173250000Y-98900000D02*
X173925000Y-98225000D01*
X173925000Y-96700000D02*
X174350000Y-96275000D01*
X186000000Y-98600000D02*
X186000000Y-100190000D01*
X184850000Y-103750000D02*
X187200000Y-101400000D01*
X182322361Y-108311953D02*
X182322361Y-108327639D01*
X175275000Y-122375000D02*
X175275000Y-123300000D01*
X187200000Y-101400000D02*
X187200000Y-101390000D01*
X182322361Y-108311953D02*
X182322361Y-108252639D01*
X172035000Y-101390000D02*
X173250000Y-100175000D01*
X183025000Y-105075000D02*
X184350000Y-103750000D01*
X182322361Y-108327639D02*
X181500000Y-109150000D01*
X173925000Y-98225000D02*
X173925000Y-96700000D01*
X184350000Y-103750000D02*
X184850000Y-103750000D01*
X172000000Y-101390000D02*
X172035000Y-101390000D01*
X175275000Y-120575000D02*
X175475000Y-120375000D01*
X174350000Y-96275000D02*
X180650000Y-96275000D01*
X183475000Y-96075000D02*
X186000000Y-98600000D01*
X182322361Y-108252639D02*
X183025000Y-107550000D01*
X175475000Y-120375000D02*
X176225000Y-120375000D01*
X183025000Y-107550000D02*
X183025000Y-105075000D01*
%TO.N,RAW*%
X180162500Y-98050000D02*
X179350000Y-98050000D01*
X179175000Y-99725000D02*
X179400000Y-99950000D01*
X179400000Y-99950000D02*
X180162500Y-99950000D01*
X181125000Y-99800000D02*
X181950000Y-99800000D01*
X180975000Y-99950000D02*
X180162500Y-99950000D01*
X179350000Y-98050000D02*
X179175000Y-98225000D01*
X179175000Y-98225000D02*
X179175000Y-99725000D01*
X181950000Y-99800000D02*
X182150000Y-100000000D01*
X181125000Y-99800000D02*
X180975000Y-99950000D01*
%TO.N,+5VD*%
X176877639Y-108311953D02*
X176861953Y-108311953D01*
X176200000Y-107650000D02*
X176200000Y-106025000D01*
X179050000Y-113900000D02*
X179050000Y-110500000D01*
X174650000Y-98825000D02*
X174650000Y-97050000D01*
X179050000Y-110500000D02*
X176877639Y-108327639D01*
X178125000Y-101075000D02*
X178125000Y-103975000D01*
X174600000Y-99925000D02*
X174075000Y-99400000D01*
X175875000Y-100700000D02*
X175925000Y-100700000D01*
X178125000Y-104100000D02*
X178125000Y-104075000D01*
X176200000Y-106025000D02*
X178125000Y-104100000D01*
X177875000Y-120275000D02*
X177450000Y-119850000D01*
X175925000Y-100700000D02*
X176675000Y-99950000D01*
X181169417Y-116019417D02*
X181190990Y-116019417D01*
X174650000Y-97050000D02*
X174700000Y-97000000D01*
X175100000Y-99925000D02*
X174600000Y-99925000D01*
X176877639Y-108327639D02*
X176877639Y-108311953D01*
X176675000Y-99950000D02*
X177887500Y-99950000D01*
X177887500Y-100462500D02*
X177887500Y-99950000D01*
X178125000Y-103975000D02*
X178150000Y-104000000D01*
X178125000Y-101075000D02*
X178125000Y-100700000D01*
X177875000Y-120375000D02*
X177875000Y-120275000D01*
X176861953Y-108311953D02*
X176200000Y-107650000D01*
X175875000Y-100700000D02*
X175100000Y-99925000D01*
X180375000Y-115225000D02*
X181169417Y-116019417D01*
X174075000Y-99400000D02*
X174650000Y-98825000D01*
X178125000Y-100700000D02*
X177887500Y-100462500D01*
X180375000Y-115225000D02*
X179050000Y-113900000D01*
%TO.N,Net-(D10-Pad2)*%
X184800000Y-123312500D02*
X184800000Y-121925000D01*
%TO.N,Net-(D20-Pad2)*%
X174075000Y-101625000D02*
X174075000Y-101050000D01*
X174362500Y-101912500D02*
X174075000Y-101625000D01*
X174362500Y-102525000D02*
X174362500Y-101912500D01*
%TO.N,MISO*%
X178585103Y-116585103D02*
X178950000Y-116950000D01*
X178574695Y-116585103D02*
X178585103Y-116585103D01*
%TO.N,SCK*%
X186000000Y-119175000D02*
X186000000Y-117750000D01*
X184800000Y-120275000D02*
X184925000Y-120275000D01*
X184925000Y-120275000D02*
X184925000Y-120250000D01*
X181625000Y-120275000D02*
X184850000Y-120275000D01*
X180250000Y-116960408D02*
X180250000Y-118900000D01*
X187120000Y-116630000D02*
X187200000Y-116630000D01*
X180250000Y-118900000D02*
X181625000Y-120275000D01*
X184925000Y-120250000D02*
X186000000Y-119175000D01*
X184850000Y-120275000D02*
X184925000Y-120275000D01*
X180625305Y-116585103D02*
X180250000Y-116960408D01*
X186000000Y-117750000D02*
X187120000Y-116630000D01*
%TO.N,MOSI*%
X180850000Y-121000000D02*
X177200000Y-117350000D01*
X177200000Y-117350000D02*
X177200000Y-116850000D01*
X183550000Y-121000000D02*
X180850000Y-121000000D01*
X178009010Y-116040990D02*
X178009010Y-116019417D01*
X177200000Y-116850000D02*
X178009010Y-116040990D01*
%TO.N,TXD*%
X181850000Y-104550000D02*
X181850000Y-106550000D01*
X183400000Y-97850000D02*
X183400000Y-103000000D01*
X172000000Y-96310000D02*
X173510000Y-94800000D01*
X182235000Y-94800000D02*
X183410000Y-93625000D01*
X173510000Y-94800000D02*
X182235000Y-94800000D01*
X183400000Y-103000000D02*
X181850000Y-104550000D01*
X181850000Y-106550000D02*
X181219417Y-107180583D01*
X181219417Y-107180583D02*
X181190990Y-107180583D01*
X183775000Y-97475000D02*
X183400000Y-97850000D01*
%TO.N,RXD*%
X173275000Y-97575000D02*
X172000000Y-98850000D01*
X179725000Y-95525000D02*
X174125000Y-95525000D01*
X182400000Y-104950000D02*
X182400000Y-107100000D01*
X182400000Y-107100000D02*
X181756676Y-107743324D01*
X181756676Y-107743324D02*
X181756676Y-107746268D01*
X184275000Y-100675000D02*
X184275000Y-103075000D01*
X174125000Y-95525000D02*
X173275000Y-96375000D01*
X173275000Y-96375000D02*
X173275000Y-97575000D01*
X184275000Y-103075000D02*
X182400000Y-104950000D01*
%TO.N,D9*%
X176861953Y-114888047D02*
X176877639Y-114888047D01*
X173600000Y-123700000D02*
X173600000Y-121150000D01*
X175400000Y-119350000D02*
X175400000Y-116350000D01*
X175400000Y-116350000D02*
X176861953Y-114888047D01*
X173050000Y-124250000D02*
X173600000Y-123700000D01*
X173600000Y-121150000D02*
X175400000Y-119350000D01*
X172000000Y-124250000D02*
X173050000Y-124250000D01*
%TO.N,D8*%
X174650000Y-119060000D02*
X172000000Y-121710000D01*
X176311953Y-114322361D02*
X176311953Y-114338047D01*
X176311953Y-114338047D02*
X174650000Y-116000000D01*
X174650000Y-116000000D02*
X174650000Y-119060000D01*
%TO.N,D7*%
X174050000Y-115450000D02*
X174050000Y-117120000D01*
X175743324Y-113756676D02*
X174050000Y-115450000D01*
X175746268Y-113756676D02*
X175743324Y-113756676D01*
X174050000Y-117120000D02*
X172000000Y-119170000D01*
%TO.N,D6*%
X173450000Y-115150000D02*
X173450000Y-114921573D01*
X173450000Y-114921573D02*
X175180583Y-113190990D01*
X172000000Y-116600000D02*
X173450000Y-115150000D01*
X172000000Y-116630000D02*
X172000000Y-116600000D01*
%TO.N,D5*%
X172000000Y-114090000D02*
X173150202Y-114090000D01*
X173150202Y-114090000D02*
X174614897Y-112625305D01*
%TO.N,D4*%
X179275000Y-107875000D02*
X178703427Y-107875000D01*
X178703427Y-107875000D02*
X178009010Y-107180583D01*
X180500000Y-109100000D02*
X179275000Y-107875000D01*
%TO.N,D3*%
X178564897Y-106614897D02*
X177750000Y-105800000D01*
X177750000Y-105800000D02*
X177450000Y-105800000D01*
X178574695Y-106614897D02*
X178564897Y-106614897D01*
%TO.N,D2*%
X178400000Y-105275000D02*
X178800000Y-105675000D01*
X179685408Y-105675000D02*
X180625305Y-106614897D01*
X178800000Y-105675000D02*
X179685408Y-105675000D01*
%TO.N,D10*%
X180825000Y-121800000D02*
X176650000Y-117625000D01*
X176650000Y-116250000D02*
X177443324Y-115456676D01*
X176650000Y-117625000D02*
X176650000Y-116250000D01*
X177443324Y-115456676D02*
X177443324Y-115453732D01*
X182900000Y-121800000D02*
X180825000Y-121800000D01*
%TO.N,A0*%
X184019417Y-113219417D02*
X184890000Y-114090000D01*
X184019417Y-113190990D02*
X184019417Y-113219417D01*
X184890000Y-114090000D02*
X187200000Y-114090000D01*
%TO.N,A1*%
X185650000Y-111550000D02*
X187200000Y-111550000D01*
X184585103Y-112625305D02*
X184585103Y-112614897D01*
X184585103Y-112614897D02*
X185650000Y-111550000D01*
%TO.N,A2*%
X184585103Y-110564897D02*
X185300000Y-109850000D01*
X185300000Y-109850000D02*
X186360000Y-109850000D01*
X184585103Y-110574695D02*
X184585103Y-110564897D01*
X186360000Y-109850000D02*
X187200000Y-109010000D01*
%TO.N,A3*%
X184019417Y-110009010D02*
X184040990Y-110009010D01*
X185100000Y-108950000D02*
X185600000Y-108950000D01*
X185950000Y-108600000D02*
X185950000Y-107720000D01*
X184040990Y-110009010D02*
X185100000Y-108950000D01*
X185950000Y-107720000D02*
X187200000Y-106470000D01*
X185600000Y-108950000D02*
X185950000Y-108600000D01*
%TO.N,A4*%
X183453732Y-109443324D02*
X183456676Y-109443324D01*
X184750000Y-108150000D02*
X184750000Y-107600000D01*
X183456676Y-109443324D02*
X184750000Y-108150000D01*
%TO.N,A5*%
X182888047Y-108877639D02*
X182888047Y-108861953D01*
X183550000Y-108200000D02*
X183550000Y-106260000D01*
X182888047Y-108861953D02*
X183550000Y-108200000D01*
X183550000Y-106260000D02*
X184750000Y-105060000D01*
%TO.N,A6*%
X182400000Y-116097056D02*
X182400000Y-116750000D01*
X184800000Y-118500000D02*
X184800000Y-118175000D01*
X182675000Y-119425000D02*
X183875000Y-119425000D01*
X182400000Y-116750000D02*
X181750000Y-117400000D01*
X181750000Y-118500000D02*
X182675000Y-119425000D01*
X183875000Y-119425000D02*
X184800000Y-118500000D01*
X181750000Y-117400000D02*
X181750000Y-118500000D01*
X181756676Y-115453732D02*
X182400000Y-116097056D01*
%TO.N,A7*%
X184650000Y-114550000D02*
X184800000Y-114700000D01*
X184250000Y-114550000D02*
X184650000Y-114550000D01*
X183453732Y-113756676D02*
X183456676Y-113756676D01*
X184800000Y-114700000D02*
X184800000Y-115635000D01*
X183456676Y-113756676D02*
X184250000Y-114550000D01*
%TO.N,SDA1*%
X178425000Y-108700000D02*
X177471268Y-107746268D01*
X177443324Y-107746268D02*
X177496268Y-107746268D01*
X177471268Y-107746268D02*
X177443324Y-107746268D01*
%TO.N,SCL1*%
X179480000Y-103320000D02*
X179480000Y-101700000D01*
X179375000Y-104825000D02*
X179375000Y-103425000D01*
X179375000Y-103425000D02*
X179480000Y-103320000D01*
X175746268Y-109443324D02*
X175743324Y-109443324D01*
X175743324Y-109443324D02*
X174900000Y-108600000D01*
%TO.N,Net-(U1-Pad7)*%
X174000000Y-108850000D02*
X174000000Y-108100000D01*
X174000000Y-108100000D02*
X174725000Y-107375000D01*
X174725000Y-107375000D02*
X174725000Y-106950000D01*
X175159010Y-110009010D02*
X174000000Y-108850000D01*
X175180583Y-110009010D02*
X175159010Y-110009010D01*
%TO.N,Net-(U1-Pad8)*%
X174600000Y-104550000D02*
X173850000Y-104550000D01*
X173450000Y-109409798D02*
X174614897Y-110574695D01*
X173450000Y-104950000D02*
X173450000Y-109409798D01*
X173850000Y-104550000D02*
X173450000Y-104950000D01*
%TD*%
%TA.AperFunction,Conductor*%
%TO.N,GNDD*%
G36*
X178865012Y-120556765D02*
G01*
X178871595Y-120562894D01*
X180416753Y-122108052D01*
X180424334Y-122117539D01*
X180424708Y-122117221D01*
X180430523Y-122124054D01*
X180435315Y-122131648D01*
X180466831Y-122159482D01*
X180475484Y-122167124D01*
X180481171Y-122172470D01*
X180492565Y-122183864D01*
X180500851Y-122190074D01*
X180500887Y-122190101D01*
X180508725Y-122196482D01*
X180537332Y-122221747D01*
X180537335Y-122221749D01*
X180544061Y-122227689D01*
X180552189Y-122231505D01*
X180554835Y-122233243D01*
X180569325Y-122241950D01*
X180572084Y-122243460D01*
X180579266Y-122248843D01*
X180623422Y-122265396D01*
X180632708Y-122269309D01*
X180675391Y-122289349D01*
X180684264Y-122290731D01*
X180687291Y-122291656D01*
X180703635Y-122295944D01*
X180706717Y-122296622D01*
X180715118Y-122299771D01*
X180724064Y-122300436D01*
X180724065Y-122300436D01*
X180762124Y-122303264D01*
X180772173Y-122304418D01*
X180785544Y-122306500D01*
X180800986Y-122306500D01*
X180810324Y-122306846D01*
X180859804Y-122310523D01*
X180868578Y-122308650D01*
X180877059Y-122308072D01*
X180891950Y-122306500D01*
X181883082Y-122306500D01*
X181951203Y-122326502D01*
X181997696Y-122380158D01*
X182007800Y-122450432D01*
X181983908Y-122508065D01*
X181955214Y-122546351D01*
X181946676Y-122561946D01*
X181901522Y-122682394D01*
X181897895Y-122697649D01*
X181892369Y-122748514D01*
X181892000Y-122755328D01*
X181892000Y-123027885D01*
X181896475Y-123043124D01*
X181897865Y-123044329D01*
X181905548Y-123046000D01*
X183153000Y-123046000D01*
X183221121Y-123066002D01*
X183267614Y-123119658D01*
X183279000Y-123172000D01*
X183279000Y-124289884D01*
X183283475Y-124305123D01*
X183284865Y-124306328D01*
X183292548Y-124307999D01*
X183694669Y-124307999D01*
X183701488Y-124307630D01*
X183710230Y-124306680D01*
X183780112Y-124319209D01*
X183832127Y-124367530D01*
X183849761Y-124436302D01*
X183843429Y-124471610D01*
X183829421Y-124513843D01*
X183826555Y-124527210D01*
X183817386Y-124616700D01*
X183821475Y-124630624D01*
X183822865Y-124631829D01*
X183830548Y-124633500D01*
X184928000Y-124633500D01*
X184996121Y-124653502D01*
X185042614Y-124707158D01*
X185054000Y-124759500D01*
X185054000Y-125015500D01*
X185033998Y-125083621D01*
X184980342Y-125130114D01*
X184928000Y-125141500D01*
X183835115Y-125141500D01*
X183819876Y-125145975D01*
X183818671Y-125147365D01*
X183814121Y-125168283D01*
X183809711Y-125167324D01*
X183796998Y-125210621D01*
X183743342Y-125257114D01*
X183691000Y-125268500D01*
X173357040Y-125268500D01*
X173288919Y-125248498D01*
X173242426Y-125194842D01*
X173231869Y-125136158D01*
X173231500Y-125136158D01*
X173231500Y-124807308D01*
X173251502Y-124739187D01*
X173290987Y-124702832D01*
X173290238Y-124701807D01*
X173296485Y-124697244D01*
X173298048Y-124696331D01*
X173298344Y-124696058D01*
X173300239Y-124695050D01*
X173314882Y-124686494D01*
X173317524Y-124684804D01*
X173325693Y-124681090D01*
X173332493Y-124675231D01*
X173332496Y-124675229D01*
X173361407Y-124650318D01*
X173369312Y-124644040D01*
X173380250Y-124636049D01*
X173391168Y-124625131D01*
X173398015Y-124618773D01*
X173428802Y-124592245D01*
X173435604Y-124586384D01*
X173440488Y-124578849D01*
X173446085Y-124572433D01*
X173455491Y-124560808D01*
X173908052Y-124108247D01*
X173917539Y-124100666D01*
X173917221Y-124100292D01*
X173924054Y-124094477D01*
X173931648Y-124089685D01*
X173967124Y-124049515D01*
X173972470Y-124043829D01*
X173983864Y-124032435D01*
X173990103Y-124024110D01*
X173996487Y-124016268D01*
X174021747Y-123987667D01*
X174027689Y-123980939D01*
X174031503Y-123972815D01*
X174033237Y-123970176D01*
X174041936Y-123955700D01*
X174043460Y-123952917D01*
X174048842Y-123945735D01*
X174053623Y-123932982D01*
X174096263Y-123876216D01*
X174162824Y-123851514D01*
X174232173Y-123866720D01*
X174284709Y-123921676D01*
X174335513Y-124025151D01*
X174425399Y-124114880D01*
X174539503Y-124170655D01*
X174572284Y-124175437D01*
X174609316Y-124180840D01*
X174609320Y-124180840D01*
X174613842Y-124181500D01*
X175936158Y-124181500D01*
X175940706Y-124180830D01*
X175940713Y-124180830D01*
X176001459Y-124171888D01*
X176001461Y-124171887D01*
X176011144Y-124170462D01*
X176090502Y-124131499D01*
X176115803Y-124119077D01*
X176115804Y-124119076D01*
X176125151Y-124114487D01*
X176195686Y-124043829D01*
X176207522Y-124031972D01*
X176214880Y-124024601D01*
X176270655Y-123910497D01*
X176275656Y-123876216D01*
X176280259Y-123844669D01*
X181892001Y-123844669D01*
X181892371Y-123851490D01*
X181897895Y-123902352D01*
X181901521Y-123917604D01*
X181946676Y-124038054D01*
X181955214Y-124053649D01*
X182031715Y-124155724D01*
X182044276Y-124168285D01*
X182146351Y-124244786D01*
X182161946Y-124253324D01*
X182282394Y-124298478D01*
X182297649Y-124302105D01*
X182348514Y-124307631D01*
X182355328Y-124308000D01*
X182752885Y-124308000D01*
X182768124Y-124303525D01*
X182769329Y-124302135D01*
X182771000Y-124294452D01*
X182771000Y-123572115D01*
X182766525Y-123556876D01*
X182765135Y-123555671D01*
X182757452Y-123554000D01*
X181910116Y-123554000D01*
X181894877Y-123558475D01*
X181893672Y-123559865D01*
X181892001Y-123567548D01*
X181892001Y-123844669D01*
X176280259Y-123844669D01*
X176280840Y-123840684D01*
X176280840Y-123840680D01*
X176281500Y-123836158D01*
X176281500Y-122763842D01*
X176277593Y-122737294D01*
X176271888Y-122698541D01*
X176271887Y-122698539D01*
X176270462Y-122688856D01*
X176260798Y-122669173D01*
X176219077Y-122584197D01*
X176219076Y-122584196D01*
X176214487Y-122574849D01*
X176144132Y-122504617D01*
X176131972Y-122492478D01*
X176124601Y-122485120D01*
X176115244Y-122480546D01*
X176114258Y-122479843D01*
X176070415Y-122424002D01*
X176062798Y-122382857D01*
X176061583Y-122382916D01*
X176061390Y-122378963D01*
X176061445Y-122375000D01*
X176041901Y-122200764D01*
X176038179Y-122190074D01*
X175986557Y-122041835D01*
X175986556Y-122041833D01*
X175984242Y-122035188D01*
X175959493Y-121995581D01*
X175895065Y-121892474D01*
X175895062Y-121892470D01*
X175891332Y-121886501D01*
X175882835Y-121877944D01*
X175818095Y-121812752D01*
X175784287Y-121750321D01*
X175781500Y-121723967D01*
X175781500Y-121348136D01*
X175801502Y-121280015D01*
X175855158Y-121233522D01*
X175923946Y-121223214D01*
X175986884Y-121231500D01*
X176463116Y-121231500D01*
X176467203Y-121230962D01*
X176568616Y-121217611D01*
X176568618Y-121217610D01*
X176576802Y-121216533D01*
X176657262Y-121183205D01*
X176710631Y-121161099D01*
X176710633Y-121161098D01*
X176718259Y-121157939D01*
X176839731Y-121064731D01*
X176932939Y-120943259D01*
X176936099Y-120935630D01*
X176940229Y-120928477D01*
X176942963Y-120930056D01*
X176978141Y-120886404D01*
X177045505Y-120863984D01*
X177114296Y-120881543D01*
X177158613Y-120929145D01*
X177159771Y-120928477D01*
X177163901Y-120935630D01*
X177167061Y-120943259D01*
X177260269Y-121064731D01*
X177381741Y-121157939D01*
X177389367Y-121161098D01*
X177389369Y-121161099D01*
X177442738Y-121183205D01*
X177523198Y-121216533D01*
X177531382Y-121217610D01*
X177531384Y-121217611D01*
X177632797Y-121230962D01*
X177636884Y-121231500D01*
X178113116Y-121231500D01*
X178117203Y-121230962D01*
X178218616Y-121217611D01*
X178218618Y-121217610D01*
X178226802Y-121216533D01*
X178307262Y-121183205D01*
X178360631Y-121161099D01*
X178360633Y-121161098D01*
X178368259Y-121157939D01*
X178489731Y-121064731D01*
X178582939Y-120943259D01*
X178588786Y-120929145D01*
X178638374Y-120809428D01*
X178641533Y-120801802D01*
X178647272Y-120758215D01*
X178655962Y-120692203D01*
X178655962Y-120692202D01*
X178656500Y-120688116D01*
X178656500Y-120651989D01*
X178676502Y-120583868D01*
X178730158Y-120537375D01*
X178800432Y-120527271D01*
X178865012Y-120556765D01*
G37*
%TD.AperFunction*%
%TA.AperFunction,Conductor*%
G36*
X175801778Y-108179045D02*
G01*
X175844267Y-108207013D01*
X177004676Y-109367422D01*
X177008371Y-109370169D01*
X177008376Y-109370173D01*
X177057647Y-109406799D01*
X177065505Y-109412640D01*
X177074767Y-109415802D01*
X177074769Y-109415803D01*
X177133637Y-109435900D01*
X177185700Y-109453674D01*
X177196111Y-109453665D01*
X177206388Y-109455366D01*
X177206125Y-109456954D01*
X177263028Y-109473609D01*
X177284095Y-109490571D01*
X177403641Y-109610117D01*
X177440291Y-109630130D01*
X177461149Y-109634667D01*
X177489862Y-109656161D01*
X178506595Y-110672894D01*
X178540621Y-110735206D01*
X178543500Y-110761989D01*
X178543500Y-113829157D01*
X178542152Y-113841221D01*
X178542642Y-113841260D01*
X178541922Y-113850206D01*
X178539941Y-113858962D01*
X178540497Y-113867922D01*
X178543258Y-113912432D01*
X178543500Y-113920233D01*
X178543500Y-113936366D01*
X178544136Y-113940807D01*
X178544136Y-113940809D01*
X178544976Y-113946677D01*
X178546005Y-113956726D01*
X178548924Y-114003768D01*
X178551974Y-114012215D01*
X178552616Y-114015317D01*
X178556701Y-114031702D01*
X178557588Y-114034735D01*
X178558860Y-114043619D01*
X178562574Y-114051786D01*
X178562574Y-114051788D01*
X178578372Y-114086533D01*
X178582185Y-114095901D01*
X178598188Y-114140232D01*
X178603479Y-114147475D01*
X178604945Y-114150232D01*
X178613506Y-114164882D01*
X178615196Y-114167524D01*
X178618910Y-114175693D01*
X178624769Y-114182493D01*
X178624771Y-114182496D01*
X178649682Y-114211407D01*
X178655960Y-114219312D01*
X178663951Y-114230250D01*
X178674869Y-114241168D01*
X178681227Y-114248015D01*
X178713616Y-114285604D01*
X178721151Y-114290488D01*
X178727567Y-114296085D01*
X178739192Y-114305491D01*
X179552584Y-115118883D01*
X179586610Y-115181195D01*
X179589342Y-115208397D01*
X179588632Y-115214020D01*
X179589319Y-115221027D01*
X179589319Y-115221030D01*
X179592322Y-115251652D01*
X179605741Y-115388511D01*
X179661083Y-115554876D01*
X179664730Y-115560898D01*
X179664731Y-115560900D01*
X179731945Y-115671884D01*
X179750124Y-115740514D01*
X179728313Y-115808077D01*
X179713264Y-115826250D01*
X179689095Y-115850419D01*
X179626783Y-115884445D01*
X179555968Y-115879380D01*
X179510905Y-115850419D01*
X179190120Y-115529634D01*
X179186430Y-115526891D01*
X179186422Y-115526884D01*
X179133196Y-115487318D01*
X179107342Y-115461497D01*
X179067209Y-115407654D01*
X179067206Y-115407650D01*
X179064479Y-115403992D01*
X178624435Y-114963948D01*
X178620745Y-114961205D01*
X178620737Y-114961198D01*
X178567507Y-114921629D01*
X178541653Y-114895808D01*
X178501523Y-114841969D01*
X178501520Y-114841965D01*
X178498793Y-114838307D01*
X178058749Y-114398263D01*
X178055054Y-114395517D01*
X178055048Y-114395511D01*
X178001823Y-114355944D01*
X177975971Y-114330125D01*
X177935841Y-114276287D01*
X177935832Y-114276277D01*
X177933108Y-114272622D01*
X177493064Y-113832578D01*
X177489374Y-113829835D01*
X177489366Y-113829828D01*
X177436138Y-113790260D01*
X177410284Y-113764440D01*
X177394338Y-113743046D01*
X177367422Y-113706936D01*
X176927378Y-113266892D01*
X176923683Y-113264146D01*
X176923677Y-113264140D01*
X176870452Y-113224573D01*
X176844600Y-113198754D01*
X176804470Y-113144916D01*
X176804461Y-113144906D01*
X176801737Y-113141251D01*
X176361693Y-112701207D01*
X176358003Y-112698464D01*
X176357995Y-112698457D01*
X176304769Y-112658891D01*
X176278915Y-112633070D01*
X176238782Y-112579227D01*
X176238779Y-112579223D01*
X176236052Y-112575565D01*
X175796008Y-112135521D01*
X175792318Y-112132778D01*
X175792310Y-112132771D01*
X175739080Y-112093202D01*
X175713226Y-112067381D01*
X175673096Y-112013542D01*
X175673093Y-112013538D01*
X175670366Y-112009880D01*
X175349581Y-111689095D01*
X175315555Y-111626783D01*
X175320620Y-111555968D01*
X175349581Y-111510905D01*
X175670366Y-111190120D01*
X175673109Y-111186430D01*
X175673116Y-111186422D01*
X175712682Y-111133196D01*
X175738503Y-111107342D01*
X175792346Y-111067209D01*
X175792350Y-111067206D01*
X175796008Y-111064479D01*
X176236052Y-110624435D01*
X176238795Y-110620745D01*
X176238802Y-110620737D01*
X176278371Y-110567507D01*
X176304192Y-110541653D01*
X176358031Y-110501523D01*
X176358035Y-110501520D01*
X176361693Y-110498793D01*
X176684198Y-110176288D01*
X176746510Y-110142262D01*
X176755430Y-110140656D01*
X176818340Y-110131646D01*
X176835403Y-110126656D01*
X176952500Y-110073417D01*
X176965854Y-110065194D01*
X177005735Y-110033128D01*
X177010798Y-110028585D01*
X177044433Y-109994950D01*
X177052045Y-109981008D01*
X177051914Y-109979173D01*
X177047663Y-109972559D01*
X176924792Y-109849688D01*
X176890766Y-109787376D01*
X176888016Y-109761904D01*
X176887887Y-109761134D01*
X176887878Y-109750718D01*
X176872512Y-109705966D01*
X176849809Y-109639843D01*
X176846634Y-109630596D01*
X176840793Y-109622759D01*
X176840791Y-109622756D01*
X176812581Y-109584910D01*
X176801737Y-109570361D01*
X175692524Y-108461148D01*
X175662628Y-108413490D01*
X175636181Y-108337545D01*
X175632667Y-108266636D01*
X175668048Y-108205083D01*
X175731091Y-108172431D01*
X175801778Y-108179045D01*
G37*
%TD.AperFunction*%
%TA.AperFunction,Conductor*%
G36*
X179413805Y-108730106D02*
G01*
X179677584Y-108993885D01*
X179711610Y-109056197D01*
X179714342Y-109083397D01*
X179713632Y-109089020D01*
X179730741Y-109263511D01*
X179786083Y-109429876D01*
X179789730Y-109435898D01*
X179789731Y-109435900D01*
X179871164Y-109570361D01*
X179876908Y-109579846D01*
X179998701Y-109705966D01*
X180004593Y-109709821D01*
X180004597Y-109709825D01*
X180067089Y-109750718D01*
X180145410Y-109801970D01*
X180152014Y-109804426D01*
X180303140Y-109860629D01*
X180303142Y-109860629D01*
X180309742Y-109863084D01*
X180316725Y-109864016D01*
X180316726Y-109864016D01*
X180476549Y-109885342D01*
X180476553Y-109885342D01*
X180483530Y-109886273D01*
X180490541Y-109885635D01*
X180490545Y-109885635D01*
X180628105Y-109873115D01*
X180658137Y-109870382D01*
X180664839Y-109868204D01*
X180664841Y-109868204D01*
X180818185Y-109818380D01*
X180818188Y-109818379D01*
X180824884Y-109816203D01*
X180830935Y-109812596D01*
X180830937Y-109812595D01*
X180896384Y-109773581D01*
X180965138Y-109755881D01*
X181029893Y-109776378D01*
X181145410Y-109851970D01*
X181152014Y-109854426D01*
X181303140Y-109910629D01*
X181303142Y-109910629D01*
X181309742Y-109913084D01*
X181316725Y-109914016D01*
X181316726Y-109914016D01*
X181476549Y-109935342D01*
X181476553Y-109935342D01*
X181483530Y-109936273D01*
X181490541Y-109935635D01*
X181490545Y-109935635D01*
X181632887Y-109922680D01*
X181658137Y-109920382D01*
X181664839Y-109918204D01*
X181664841Y-109918204D01*
X181818185Y-109868380D01*
X181818188Y-109868379D01*
X181824884Y-109866203D01*
X181975484Y-109776427D01*
X181976526Y-109778175D01*
X182033556Y-109756461D01*
X182103031Y-109771080D01*
X182132495Y-109792981D01*
X182272622Y-109933108D01*
X182276317Y-109935854D01*
X182276323Y-109935860D01*
X182329548Y-109975427D01*
X182355400Y-110001246D01*
X182395530Y-110055084D01*
X182395539Y-110055094D01*
X182398263Y-110058749D01*
X182838307Y-110498793D01*
X182841997Y-110501536D01*
X182842005Y-110501543D01*
X182895231Y-110541109D01*
X182921085Y-110566930D01*
X182961192Y-110620737D01*
X182963948Y-110624435D01*
X183403992Y-111064479D01*
X183407682Y-111067222D01*
X183407690Y-111067229D01*
X183460920Y-111106798D01*
X183486774Y-111132619D01*
X183526878Y-111186422D01*
X183529634Y-111190120D01*
X183850419Y-111510905D01*
X183884445Y-111573217D01*
X183879380Y-111644032D01*
X183850419Y-111689095D01*
X183529634Y-112009880D01*
X183526891Y-112013570D01*
X183526884Y-112013578D01*
X183487318Y-112066804D01*
X183461497Y-112092658D01*
X183407654Y-112132791D01*
X183407650Y-112132794D01*
X183403992Y-112135521D01*
X182963948Y-112575565D01*
X182961205Y-112579255D01*
X182961198Y-112579263D01*
X182921629Y-112632493D01*
X182895808Y-112658347D01*
X182841969Y-112698477D01*
X182841965Y-112698480D01*
X182838307Y-112701207D01*
X182515802Y-113023712D01*
X182453490Y-113057738D01*
X182444570Y-113059344D01*
X182381660Y-113068354D01*
X182364597Y-113073344D01*
X182247500Y-113126583D01*
X182234146Y-113134806D01*
X182194265Y-113166872D01*
X182189202Y-113171415D01*
X182155567Y-113205050D01*
X182147955Y-113218992D01*
X182148086Y-113220827D01*
X182152337Y-113227441D01*
X182275208Y-113350312D01*
X182309234Y-113412624D01*
X182311984Y-113438096D01*
X182312113Y-113438866D01*
X182312122Y-113449282D01*
X182353366Y-113569404D01*
X182359207Y-113577241D01*
X182359209Y-113577244D01*
X182366221Y-113586651D01*
X182398263Y-113629639D01*
X183080026Y-114311402D01*
X183114052Y-114373714D01*
X183108987Y-114444529D01*
X183080026Y-114489592D01*
X183055277Y-114514341D01*
X182992965Y-114548367D01*
X182922150Y-114543302D01*
X182877087Y-114514341D01*
X182195324Y-113832578D01*
X182191625Y-113829828D01*
X182191624Y-113829827D01*
X182142353Y-113793201D01*
X182142351Y-113793200D01*
X182134495Y-113787360D01*
X182125233Y-113784198D01*
X182125231Y-113784197D01*
X182024151Y-113749689D01*
X182014300Y-113746326D01*
X182003889Y-113746335D01*
X181993612Y-113744634D01*
X181993875Y-113743046D01*
X181936972Y-113726391D01*
X181915905Y-113709429D01*
X181796359Y-113589883D01*
X181782415Y-113582269D01*
X181780582Y-113582400D01*
X181773967Y-113586651D01*
X181737114Y-113623504D01*
X181732552Y-113628588D01*
X181700491Y-113668461D01*
X181692270Y-113681812D01*
X181639030Y-113798911D01*
X181634040Y-113815974D01*
X181625030Y-113878884D01*
X181595573Y-113943481D01*
X181589398Y-113950116D01*
X181266892Y-114272622D01*
X181264146Y-114276317D01*
X181264140Y-114276323D01*
X181224573Y-114329548D01*
X181198754Y-114355400D01*
X181144916Y-114395530D01*
X181144906Y-114395539D01*
X181141251Y-114398263D01*
X180975648Y-114563866D01*
X180913336Y-114597892D01*
X180842521Y-114592827D01*
X180819042Y-114581158D01*
X180719755Y-114518148D01*
X180692570Y-114508468D01*
X180561220Y-114461696D01*
X180561215Y-114461695D01*
X180554585Y-114459334D01*
X180547597Y-114458501D01*
X180547594Y-114458500D01*
X180427307Y-114444157D01*
X180380490Y-114438574D01*
X180373487Y-114439310D01*
X180373481Y-114439310D01*
X180371837Y-114439483D01*
X180370789Y-114439291D01*
X180366440Y-114439261D01*
X180366445Y-114438497D01*
X180301998Y-114426713D01*
X180269568Y-114403269D01*
X179593405Y-113727106D01*
X179559379Y-113664794D01*
X179556500Y-113638011D01*
X179556500Y-110570843D01*
X179557848Y-110558779D01*
X179557358Y-110558740D01*
X179558078Y-110549794D01*
X179560059Y-110541038D01*
X179556742Y-110487573D01*
X179556500Y-110479772D01*
X179556500Y-110463634D01*
X179555022Y-110453314D01*
X179553992Y-110443259D01*
X179551631Y-110405190D01*
X179551631Y-110405188D01*
X179551075Y-110396232D01*
X179548027Y-110387789D01*
X179547388Y-110384703D01*
X179543294Y-110368282D01*
X179542413Y-110365269D01*
X179541140Y-110356381D01*
X179521621Y-110313452D01*
X179517823Y-110304123D01*
X179501811Y-110259767D01*
X179496511Y-110252512D01*
X179495030Y-110249727D01*
X179486505Y-110235138D01*
X179484808Y-110232484D01*
X179481090Y-110224307D01*
X179475229Y-110217505D01*
X179450326Y-110188604D01*
X179444037Y-110180683D01*
X179438923Y-110173682D01*
X179438913Y-110173670D01*
X179436049Y-110169750D01*
X179425131Y-110158832D01*
X179418773Y-110151985D01*
X179392245Y-110121198D01*
X179386384Y-110114396D01*
X179378849Y-110109512D01*
X179372433Y-110103915D01*
X179360808Y-110094509D01*
X178822116Y-109555817D01*
X178788090Y-109493505D01*
X178793155Y-109422690D01*
X178835702Y-109365854D01*
X178846693Y-109358493D01*
X178894438Y-109330031D01*
X178900484Y-109326427D01*
X178905578Y-109321576D01*
X178905582Y-109321573D01*
X178974833Y-109255625D01*
X179027452Y-109205517D01*
X179104852Y-109089020D01*
X179120576Y-109065354D01*
X179120577Y-109065352D01*
X179124477Y-109059482D01*
X179186737Y-108895581D01*
X179199936Y-108801665D01*
X179229224Y-108736991D01*
X179288828Y-108698418D01*
X179359824Y-108698193D01*
X179413805Y-108730106D01*
G37*
%TD.AperFunction*%
%TA.AperFunction,Conductor*%
G36*
X173355343Y-101646046D02*
G01*
X173384476Y-101665764D01*
X173385269Y-101664731D01*
X173506741Y-101757939D01*
X173514367Y-101761098D01*
X173514376Y-101761103D01*
X173546717Y-101774499D01*
X173601998Y-101819047D01*
X173617012Y-101848123D01*
X173623188Y-101865231D01*
X173620660Y-101866144D01*
X173632168Y-101922002D01*
X173618519Y-101965657D01*
X173619432Y-101966035D01*
X173558950Y-102112053D01*
X173543500Y-102229405D01*
X173543501Y-102820594D01*
X173544039Y-102824678D01*
X173544039Y-102824683D01*
X173556736Y-102921132D01*
X173558950Y-102937947D01*
X173619432Y-103083965D01*
X173715646Y-103209354D01*
X173722192Y-103214377D01*
X173737358Y-103226014D01*
X173841035Y-103305568D01*
X173987053Y-103366050D01*
X174104405Y-103381500D01*
X174362437Y-103381500D01*
X174620594Y-103381499D01*
X174624678Y-103380961D01*
X174624683Y-103380961D01*
X174729759Y-103367128D01*
X174729760Y-103367128D01*
X174737947Y-103366050D01*
X174883965Y-103305568D01*
X174890516Y-103300541D01*
X174890520Y-103300539D01*
X174983699Y-103229041D01*
X175049919Y-103203441D01*
X175119468Y-103217706D01*
X175149420Y-103239831D01*
X175260080Y-103350298D01*
X175271491Y-103359310D01*
X175403291Y-103440553D01*
X175416468Y-103446697D01*
X175563843Y-103495579D01*
X175577211Y-103498445D01*
X175592447Y-103500006D01*
X175658174Y-103526848D01*
X175698956Y-103584963D01*
X175702805Y-103651758D01*
X175701643Y-103657181D01*
X175692328Y-103748097D01*
X175692000Y-103754514D01*
X175692000Y-103842500D01*
X175671998Y-103910621D01*
X175618342Y-103957114D01*
X175566000Y-103968500D01*
X173738842Y-103968500D01*
X173734294Y-103969170D01*
X173734287Y-103969170D01*
X173673541Y-103978112D01*
X173673539Y-103978113D01*
X173663856Y-103979538D01*
X173655068Y-103983853D01*
X173655067Y-103983853D01*
X173559197Y-104030923D01*
X173559196Y-104030924D01*
X173549849Y-104035513D01*
X173460120Y-104125399D01*
X173455547Y-104134754D01*
X173454846Y-104135737D01*
X173399005Y-104179581D01*
X173328325Y-104186274D01*
X173318840Y-104184000D01*
X171872000Y-104184000D01*
X171803879Y-104163998D01*
X171757386Y-104110342D01*
X171746000Y-104058000D01*
X171746000Y-103802000D01*
X171766002Y-103733879D01*
X171819658Y-103687386D01*
X171872000Y-103676000D01*
X173318344Y-103676000D01*
X173331875Y-103672027D01*
X173333180Y-103662947D01*
X173291214Y-103495875D01*
X173287894Y-103486124D01*
X173202972Y-103290814D01*
X173198105Y-103281739D01*
X173082426Y-103102926D01*
X173076136Y-103094757D01*
X172932806Y-102937240D01*
X172925273Y-102930215D01*
X172758139Y-102798222D01*
X172749561Y-102792523D01*
X172580364Y-102699121D01*
X172530394Y-102648688D01*
X172515622Y-102579245D01*
X172540738Y-102512840D01*
X172588008Y-102474617D01*
X172613115Y-102462910D01*
X172613120Y-102462907D01*
X172618102Y-102460584D01*
X172622611Y-102457427D01*
X172790106Y-102340146D01*
X172790109Y-102340144D01*
X172794617Y-102336987D01*
X172946987Y-102184617D01*
X173070584Y-102008102D01*
X173072907Y-102003120D01*
X173072910Y-102003115D01*
X173159329Y-101817789D01*
X173159330Y-101817787D01*
X173161652Y-101812807D01*
X173163073Y-101807502D01*
X173163076Y-101807495D01*
X173184037Y-101729263D01*
X173220988Y-101668640D01*
X173284848Y-101637618D01*
X173355343Y-101646046D01*
G37*
%TD.AperFunction*%
%TA.AperFunction,Conductor*%
G36*
X177111497Y-100567744D02*
G01*
X177111632Y-100567404D01*
X177247028Y-100621011D01*
X177292079Y-100626463D01*
X177357300Y-100654502D01*
X177397010Y-100713354D01*
X177398599Y-100784333D01*
X177395342Y-100794638D01*
X177360606Y-100890074D01*
X177359723Y-100897062D01*
X177359723Y-100897063D01*
X177358372Y-100907761D01*
X177338632Y-101064020D01*
X177355741Y-101238511D01*
X177411083Y-101404876D01*
X177414730Y-101410898D01*
X177414731Y-101410900D01*
X177494891Y-101543259D01*
X177501908Y-101554846D01*
X177544726Y-101599185D01*
X177583137Y-101638961D01*
X177616069Y-101701858D01*
X177618500Y-101726488D01*
X177618500Y-103202637D01*
X177598498Y-103270758D01*
X177544842Y-103317251D01*
X177474568Y-103327355D01*
X177409988Y-103297861D01*
X177403482Y-103291810D01*
X177337571Y-103226014D01*
X177326160Y-103217002D01*
X177193120Y-103134996D01*
X177179939Y-103128849D01*
X177031186Y-103079509D01*
X177017810Y-103076642D01*
X176984093Y-103073187D01*
X176918366Y-103046345D01*
X176877584Y-102988230D01*
X176874219Y-102929780D01*
X176872744Y-102929629D01*
X176882672Y-102832730D01*
X176883000Y-102826315D01*
X176883000Y-102797115D01*
X176878525Y-102781876D01*
X176877135Y-102780671D01*
X176869452Y-102779000D01*
X175809500Y-102779000D01*
X175741379Y-102758998D01*
X175694886Y-102705342D01*
X175683500Y-102653000D01*
X175683500Y-102397000D01*
X175703502Y-102328879D01*
X175757158Y-102282386D01*
X175809500Y-102271000D01*
X176864885Y-102271000D01*
X176880124Y-102266525D01*
X176881329Y-102265135D01*
X176883000Y-102257452D01*
X176883000Y-102223734D01*
X176882663Y-102217218D01*
X176873196Y-102125979D01*
X176870303Y-102112583D01*
X176821170Y-101965313D01*
X176814996Y-101952134D01*
X176733530Y-101820486D01*
X176724493Y-101809084D01*
X176718408Y-101803009D01*
X176684330Y-101740725D01*
X176689335Y-101669905D01*
X176718333Y-101624743D01*
X176802949Y-101540127D01*
X176854593Y-101452802D01*
X176880133Y-101409615D01*
X176884168Y-101402792D01*
X176886380Y-101395179D01*
X176926888Y-101255751D01*
X176926889Y-101255746D01*
X176928682Y-101249574D01*
X176930105Y-101231502D01*
X176931307Y-101216226D01*
X176931307Y-101216218D01*
X176931500Y-101213770D01*
X176931500Y-100680190D01*
X176951502Y-100612069D01*
X177005158Y-100565576D01*
X177075432Y-100555472D01*
X177111497Y-100567744D01*
G37*
%TD.AperFunction*%
%TA.AperFunction,Conductor*%
G36*
X176071121Y-97766002D02*
G01*
X176117614Y-97819658D01*
X176129000Y-97872000D01*
X176129000Y-99189884D01*
X176133475Y-99205123D01*
X176134865Y-99206328D01*
X176142548Y-99207999D01*
X176347095Y-99207999D01*
X176353614Y-99207662D01*
X176449206Y-99197743D01*
X176462600Y-99194851D01*
X176616784Y-99143412D01*
X176629962Y-99137239D01*
X176767807Y-99051937D01*
X176779208Y-99042901D01*
X176893739Y-98928171D01*
X176902751Y-98916760D01*
X176987816Y-98778757D01*
X176993966Y-98765569D01*
X176994423Y-98764192D01*
X176994990Y-98763374D01*
X176997056Y-98758943D01*
X176997815Y-98759297D01*
X177034856Y-98705833D01*
X177100421Y-98678599D01*
X177160397Y-98686712D01*
X177232056Y-98715083D01*
X177247028Y-98721011D01*
X177255066Y-98721984D01*
X177255067Y-98721984D01*
X177286014Y-98725729D01*
X177333706Y-98731500D01*
X178441294Y-98731500D01*
X178527365Y-98721084D01*
X178597394Y-98732758D01*
X178649996Y-98780440D01*
X178668500Y-98846172D01*
X178668500Y-99153828D01*
X178648498Y-99221949D01*
X178594842Y-99268442D01*
X178527366Y-99278916D01*
X178441294Y-99268500D01*
X177333706Y-99268500D01*
X177286014Y-99274271D01*
X177255067Y-99278016D01*
X177255066Y-99278016D01*
X177247028Y-99278989D01*
X177186098Y-99303113D01*
X177119615Y-99329435D01*
X177119613Y-99329436D01*
X177111632Y-99332596D01*
X177104792Y-99337788D01*
X176999296Y-99417863D01*
X176932943Y-99443116D01*
X176923117Y-99443500D01*
X176745843Y-99443500D01*
X176733779Y-99442152D01*
X176733740Y-99442642D01*
X176724794Y-99441922D01*
X176716038Y-99439941D01*
X176664857Y-99443116D01*
X176662568Y-99443258D01*
X176654767Y-99443500D01*
X176638634Y-99443500D01*
X176634193Y-99444136D01*
X176634191Y-99444136D01*
X176628323Y-99444976D01*
X176618274Y-99446005D01*
X176582845Y-99448203D01*
X176571232Y-99448924D01*
X176562785Y-99451974D01*
X176559683Y-99452616D01*
X176543306Y-99456699D01*
X176540268Y-99457587D01*
X176531381Y-99458860D01*
X176493336Y-99476158D01*
X176488469Y-99478371D01*
X176479107Y-99482182D01*
X176434767Y-99498189D01*
X176427518Y-99503485D01*
X176424738Y-99504963D01*
X176410138Y-99513495D01*
X176407484Y-99515192D01*
X176399307Y-99518910D01*
X176392505Y-99524771D01*
X176363604Y-99549674D01*
X176355683Y-99555963D01*
X176348682Y-99561077D01*
X176348670Y-99561087D01*
X176344750Y-99563951D01*
X176333832Y-99574869D01*
X176326984Y-99581228D01*
X176319178Y-99587954D01*
X176254516Y-99617267D01*
X176236931Y-99618500D01*
X175565834Y-99618500D01*
X175497713Y-99598498D01*
X175482427Y-99586942D01*
X175460292Y-99567393D01*
X175449515Y-99557875D01*
X175443830Y-99552531D01*
X175432435Y-99541136D01*
X175424100Y-99534889D01*
X175416272Y-99528516D01*
X175387666Y-99503252D01*
X175380939Y-99497311D01*
X175372812Y-99493495D01*
X175370178Y-99491765D01*
X175355681Y-99483054D01*
X175352915Y-99481540D01*
X175345734Y-99476158D01*
X175321774Y-99467176D01*
X175301601Y-99459613D01*
X175292281Y-99455685D01*
X175258269Y-99439716D01*
X175205108Y-99392660D01*
X175185826Y-99324331D01*
X175206546Y-99256426D01*
X175260690Y-99210502D01*
X175324662Y-99200318D01*
X175396440Y-99207672D01*
X175402854Y-99208000D01*
X175602885Y-99208000D01*
X175618124Y-99203525D01*
X175619329Y-99202135D01*
X175621000Y-99194452D01*
X175621000Y-97872000D01*
X175641002Y-97803879D01*
X175694658Y-97757386D01*
X175747000Y-97746000D01*
X176003000Y-97746000D01*
X176071121Y-97766002D01*
G37*
%TD.AperFunction*%
%TA.AperFunction,Conductor*%
G36*
X180876635Y-96761380D02*
G01*
X180936317Y-96799831D01*
X180965738Y-96864445D01*
X180967000Y-96882236D01*
X180967000Y-97027885D01*
X180971475Y-97043124D01*
X180972865Y-97044329D01*
X180980548Y-97046000D01*
X182278000Y-97046000D01*
X182346121Y-97066002D01*
X182392614Y-97119658D01*
X182404000Y-97172000D01*
X182404000Y-98489884D01*
X182408475Y-98505123D01*
X182409865Y-98506328D01*
X182417548Y-98507999D01*
X182622095Y-98507999D01*
X182628614Y-98507662D01*
X182724207Y-98497743D01*
X182740901Y-98494138D01*
X182811709Y-98499308D01*
X182868481Y-98541940D01*
X182893192Y-98608498D01*
X182893500Y-98617298D01*
X182893500Y-98817106D01*
X182873498Y-98885227D01*
X182819842Y-98931720D01*
X182749568Y-98941824D01*
X182732355Y-98938105D01*
X182674574Y-98921318D01*
X182668169Y-98920814D01*
X182668164Y-98920813D01*
X182641226Y-98918693D01*
X182641218Y-98918693D01*
X182638770Y-98918500D01*
X181661230Y-98918500D01*
X181658782Y-98918693D01*
X181658774Y-98918693D01*
X181631836Y-98920813D01*
X181631831Y-98920814D01*
X181625426Y-98921318D01*
X181619254Y-98923111D01*
X181619249Y-98923112D01*
X181554844Y-98941824D01*
X181494151Y-98959457D01*
X181423156Y-98959254D01*
X181363540Y-98920700D01*
X181334231Y-98856036D01*
X181332999Y-98838460D01*
X181332999Y-98786017D01*
X181332805Y-98781080D01*
X181330570Y-98752664D01*
X181328269Y-98740066D01*
X181291300Y-98612819D01*
X181291503Y-98541823D01*
X181330056Y-98482207D01*
X181394721Y-98452898D01*
X181451965Y-98458073D01*
X181563710Y-98495138D01*
X181577086Y-98498005D01*
X181671438Y-98507672D01*
X181677854Y-98508000D01*
X181877885Y-98508000D01*
X181893124Y-98503525D01*
X181894329Y-98502135D01*
X181896000Y-98494452D01*
X181896000Y-97572115D01*
X181891525Y-97556876D01*
X181890135Y-97555671D01*
X181882452Y-97554000D01*
X181138264Y-97554000D01*
X181070143Y-97533998D01*
X181055613Y-97522288D01*
X181054361Y-97520639D01*
X180938368Y-97432596D01*
X180930387Y-97429436D01*
X180930385Y-97429435D01*
X180810501Y-97381970D01*
X180802972Y-97378989D01*
X180794934Y-97378016D01*
X180794933Y-97378016D01*
X180763986Y-97374271D01*
X180716294Y-97368500D01*
X179608706Y-97368500D01*
X179561014Y-97374271D01*
X179530067Y-97378016D01*
X179530066Y-97378016D01*
X179522028Y-97378989D01*
X179514499Y-97381970D01*
X179394615Y-97429435D01*
X179394613Y-97429436D01*
X179386632Y-97432596D01*
X179270639Y-97520639D01*
X179265998Y-97526753D01*
X179213550Y-97557833D01*
X179206381Y-97558860D01*
X179163452Y-97578379D01*
X179154123Y-97582177D01*
X179109767Y-97598189D01*
X179102512Y-97603489D01*
X179099727Y-97604970D01*
X179085138Y-97613495D01*
X179082484Y-97615192D01*
X179074307Y-97618910D01*
X179067505Y-97624771D01*
X179042644Y-97646193D01*
X178977982Y-97675508D01*
X178907736Y-97665209D01*
X178860032Y-97626920D01*
X178850071Y-97613796D01*
X178779361Y-97520639D01*
X178663368Y-97432596D01*
X178655387Y-97429436D01*
X178655385Y-97429435D01*
X178535501Y-97381970D01*
X178527972Y-97378989D01*
X178519934Y-97378016D01*
X178519933Y-97378016D01*
X178488986Y-97374271D01*
X178441294Y-97368500D01*
X177333706Y-97368500D01*
X177286014Y-97374271D01*
X177255067Y-97378016D01*
X177255066Y-97378016D01*
X177247028Y-97378989D01*
X177239499Y-97381970D01*
X177189738Y-97401671D01*
X177119038Y-97408150D01*
X177056058Y-97375377D01*
X177023831Y-97324394D01*
X176993413Y-97233218D01*
X176987239Y-97220038D01*
X176901937Y-97082193D01*
X176892901Y-97070792D01*
X176818653Y-96996673D01*
X176784574Y-96934390D01*
X176789577Y-96863570D01*
X176832074Y-96806697D01*
X176898573Y-96781829D01*
X176907671Y-96781500D01*
X180579157Y-96781500D01*
X180591221Y-96782848D01*
X180591260Y-96782358D01*
X180600206Y-96783078D01*
X180608962Y-96785059D01*
X180662432Y-96781742D01*
X180670233Y-96781500D01*
X180686366Y-96781500D01*
X180690807Y-96780864D01*
X180690809Y-96780864D01*
X180696677Y-96780024D01*
X180706726Y-96778995D01*
X180744806Y-96776632D01*
X180753768Y-96776076D01*
X180762215Y-96773026D01*
X180765317Y-96772384D01*
X180781702Y-96768299D01*
X180784735Y-96767412D01*
X180793619Y-96766140D01*
X180801788Y-96762426D01*
X180805638Y-96761300D01*
X180876635Y-96761380D01*
G37*
%TD.AperFunction*%
%TA.AperFunction,Conductor*%
G36*
X171834121Y-92851502D02*
G01*
X171880614Y-92905158D01*
X171892000Y-92957500D01*
X171892000Y-93352885D01*
X171896475Y-93368124D01*
X171897865Y-93369329D01*
X171905548Y-93371000D01*
X175918000Y-93371000D01*
X175986121Y-93391002D01*
X176032614Y-93444658D01*
X176044000Y-93497000D01*
X176044000Y-93753000D01*
X176023998Y-93821121D01*
X175970342Y-93867614D01*
X175918000Y-93879000D01*
X171910116Y-93879000D01*
X171894877Y-93883475D01*
X171893672Y-93884865D01*
X171892001Y-93892548D01*
X171892001Y-94519669D01*
X171892371Y-94526490D01*
X171897895Y-94577352D01*
X171901521Y-94592604D01*
X171946676Y-94713054D01*
X171955214Y-94728649D01*
X172031715Y-94830724D01*
X172044278Y-94843287D01*
X172051375Y-94848606D01*
X172093890Y-94905465D01*
X172098914Y-94976284D01*
X172064854Y-95038577D01*
X172002522Y-95072567D01*
X171986796Y-95074951D01*
X171785335Y-95092577D01*
X171780022Y-95094001D01*
X171780020Y-95094001D01*
X171582503Y-95146925D01*
X171582501Y-95146926D01*
X171577193Y-95148348D01*
X171572213Y-95150670D01*
X171572211Y-95150671D01*
X171386885Y-95237090D01*
X171386880Y-95237093D01*
X171381898Y-95239416D01*
X171377391Y-95242572D01*
X171377389Y-95242573D01*
X171209894Y-95359854D01*
X171209891Y-95359856D01*
X171205383Y-95363013D01*
X171196595Y-95371801D01*
X171134283Y-95405827D01*
X171063468Y-95400762D01*
X171006632Y-95358215D01*
X170981821Y-95291695D01*
X170981500Y-95282706D01*
X170981500Y-92957500D01*
X171001502Y-92889379D01*
X171055158Y-92842886D01*
X171107500Y-92831500D01*
X171766000Y-92831500D01*
X171834121Y-92851502D01*
G37*
%TD.AperFunction*%
%TD*%
M02*
