%TF.GenerationSoftware,KiCad,Pcbnew,6.0.11-2627ca5db0~126~ubuntu22.04.1*%
%TF.CreationDate,2023-09-30T14:12:33+02:00*%
%TF.ProjectId,atmega328pb-nano,61746d65-6761-4333-9238-70622d6e616e,rev?*%
%TF.SameCoordinates,Original*%
%TF.FileFunction,Soldermask,Bot*%
%TF.FilePolarity,Negative*%
%FSLAX46Y46*%
G04 Gerber Fmt 4.6, Leading zero omitted, Abs format (unit mm)*
G04 Created by KiCad (PCBNEW 6.0.11-2627ca5db0~126~ubuntu22.04.1) date 2023-09-30 14:12:33*
%MOMM*%
%LPD*%
G01*
G04 APERTURE LIST*
G04 Aperture macros list*
%AMRoundRect*
0 Rectangle with rounded corners*
0 $1 Rounding radius*
0 $2 $3 $4 $5 $6 $7 $8 $9 X,Y pos of 4 corners*
0 Add a 4 corners polygon primitive as box body*
4,1,4,$2,$3,$4,$5,$6,$7,$8,$9,$2,$3,0*
0 Add four circle primitives for the rounded corners*
1,1,$1+$1,$2,$3*
1,1,$1+$1,$4,$5*
1,1,$1+$1,$6,$7*
1,1,$1+$1,$8,$9*
0 Add four rect primitives between the rounded corners*
20,1,$1+$1,$2,$3,$4,$5,0*
20,1,$1+$1,$4,$5,$6,$7,0*
20,1,$1+$1,$6,$7,$8,$9,0*
20,1,$1+$1,$8,$9,$2,$3,0*%
G04 Aperture macros list end*
%ADD10R,1.700000X1.700000*%
%ADD11O,1.700000X1.700000*%
%ADD12RoundRect,0.200000X0.275000X-0.200000X0.275000X0.200000X-0.275000X0.200000X-0.275000X-0.200000X0*%
G04 APERTURE END LIST*
D10*
%TO.C,J2*%
X173250000Y-93625000D03*
D11*
X175790000Y-93625000D03*
X178330000Y-93625000D03*
X180870000Y-93625000D03*
X183410000Y-93625000D03*
X185950000Y-93625000D03*
%TD*%
%TO.C,J12*%
X184750000Y-107600000D03*
X184750000Y-105060000D03*
%TD*%
%TO.C,J14*%
X182020000Y-102225000D03*
X179480000Y-102225000D03*
%TD*%
%TO.C,J13*%
X184800000Y-118175000D03*
X184800000Y-115635000D03*
%TD*%
D10*
%TO.C,J10*%
X172000000Y-124250000D03*
D11*
X172000000Y-121710000D03*
X172000000Y-119170000D03*
X172000000Y-116630000D03*
X172000000Y-114090000D03*
X172000000Y-111550000D03*
X172000000Y-109010000D03*
X172000000Y-106470000D03*
X172000000Y-103930000D03*
X172000000Y-101390000D03*
X172000000Y-98850000D03*
X172000000Y-96310000D03*
%TD*%
D10*
%TO.C,J11*%
X187200000Y-124250000D03*
D11*
X187200000Y-121710000D03*
X187200000Y-119170000D03*
X187200000Y-116630000D03*
X187200000Y-114090000D03*
X187200000Y-111550000D03*
X187200000Y-109010000D03*
X187200000Y-106470000D03*
X187200000Y-103930000D03*
X187200000Y-101390000D03*
X187200000Y-98850000D03*
X187200000Y-96310000D03*
%TD*%
D12*
%TO.C,R13*%
X185350000Y-103500000D03*
X185350000Y-101850000D03*
%TD*%
%TO.C,R12*%
X183850000Y-103500000D03*
X183850000Y-101850000D03*
%TD*%
M02*
